<?xml version="1.0" encoding="utf-8"?>
<!-- Generator: Adobe Illustrator 23.1.1, SVG Export Plug-In . SVG Version: 6.00 Build 0)  -->
<svg version="1.1"
	 id="svg2" xmlns:cc="http://web.resource.org/cc/" xmlns:dc="http://purl.org/dc/elements/1.1/" xmlns:inkscape="http://www.inkscape.org/namespaces/inkscape" xmlns:rdf="http://www.w3.org/1999/02/22-rdf-syntax-ns#" xmlns:sodipodi="http://sodipodi.sourceforge.net/DTD/sodipodi-0.dtd" xmlns:svg="http://www.w3.org/2000/svg"
	 xmlns="http://www.w3.org/2000/svg" xmlns:xlink="http://www.w3.org/1999/xlink" x="0px" y="0px" viewBox="0 0 180.5 261.7"
	 style="enable-background:new 0 0 180.5 261.7;" xml:space="preserve">
<style type="text/css">
	.st0{fill:#FFFFFF;stroke:#000000;stroke-width:0.4993;}
	.st1{fill-rule:evenodd;clip-rule:evenodd;fill:#FB0F0C;stroke:#FB0F0C;stroke-width:2.682629e-02;stroke-miterlimit:10;}
	.st2{fill-rule:evenodd;clip-rule:evenodd;fill:#FFFFFF;stroke:#FFFFFF;stroke-width:2.682629e-02;stroke-miterlimit:10;}
	.st3{fill-rule:evenodd;clip-rule:evenodd;fill:#FB0F0C;}
	.st4{fill:none;stroke:#000000;stroke-width:2.682629e-02;stroke-miterlimit:10;}
	.st5{fill-rule:evenodd;clip-rule:evenodd;fill:#FFFFFF;}
	.st6{fill:none;stroke:#FB0F0C;stroke-width:1.2877;stroke-miterlimit:10;}
</style>
<sodipodi:namedview  bordercolor="#666666" borderopacity="1.0" gridtolerance="10.0" guidetolerance="10.0" height="303px" id="base" inkscape:current-layer="svg2" inkscape:cx="104.42474" inkscape:cy="151.66565" inkscape:pageopacity="0.0" inkscape:pageshadow="2" inkscape:window-height="1003" inkscape:window-width="1280" inkscape:window-x="-4" inkscape:window-y="-4" inkscape:zoom="1.2428655" objecttolerance="10.0" pagecolor="#ffffff" width="208px">
	</sodipodi:namedview>
<g id="Layer_x0020_1" transform="matrix(1,0,0,1.0029936,0,-0.363221)">
	<path id="path5" class="st0" d="M180.5,253.9c0,4.1-3.3,7.4-7.4,7.4H7.7c-4.1,0-7.4-3.3-7.4-7.4V8.1c0-4.1,3.3-7.4,7.4-7.4h165.3
		c4.1,0,7.4,3.3,7.4,7.4V253.9L180.5,253.9z"/>
	<path id="path7" class="st1" d="M29.9,35.5c37.3,0,74.6,0,111.9,0c0.9,0,9.3-0.4,9.3,0.3c0,4,0,8,0,12.1c0,20,0,39.9,0,59.9
		c0,38.7,0,77.5,0,116.2c0,0.3,0.2,1.5-0.2,1.5c-1.7,0-3.3,0-5,0c-8.7,0-17.4,0-26,0c-23.6,0-47.1,0-70.7,0c-6.2,0-12.4,0-18.6,0
		c-1.6,0-0.7-4.4-0.7-5.6c0-17.4,0-34.9,0-52.3c0-42.1,0-84.1,0-126.2C29.9,39.4,29.9,37.5,29.9,35.5"/>
	<path id="path9" class="st2" d="M66.7,103.8c4.8,0,47.6-0.3,47.6,0.3c0,18,0,36.1,0,54.1c0,0.5-47.6,0.1-47.6,0.2
		c0-17.9,0-35.9,0-53.8C66.7,104.4,66.7,104.1,66.7,103.8"/>
	<path id="path11" class="st2" d="M90.6,98.9c-4.7,5.4-9.4,10.8-14.1,16.1c-3.2,3.6-6.3,7.3-9.5,10.9c-0.7,0.8-4.6,4.1-4.6,5.3
		c0,1.1,3.5,4.1,4.2,4.8c3.3,3.8,6.6,7.5,9.9,11.3c4.7,5.4,9.4,10.8,14.1,16.1c4.7-5.4,9.4-10.8,14.1-16.1c3.2-3.6,6.3-7.3,9.5-10.9
		c0.7-0.8,4.6-4.1,4.6-5.3c0-1.1-3.5-4.1-4.2-4.8c-3.3-3.8-6.6-7.5-9.9-11.3C99.9,109.6,95.2,104.2,90.6,98.9"/>
	<path id="path13" class="st1" d="M68.9,106.3c9,0,17.9,0,26.9,0c4.8,0,9.6,0,14.5,0c2.5,0,1.9,0.2,1.9,2.7c0,10.9,0,21.8,0,32.7
		c0,4.3,0,8.5,0,12.8c0,2.3-1.3,1.4-3.5,1.4c-9.5,0-18.9,0-28.4,0c-3.5,0-6.9,0-10.4,0c-1.7,0-1.1-1.1-1.1-2.7
		C68.9,137.6,68.9,122,68.9,106.3"/>
	<path id="path15" class="st1" d="M90.6,101.3c-4.2,4.9-8.5,9.7-12.7,14.6c-3,3.5-6.1,6.9-9.1,10.4c-0.7,0.8-4.2,3.7-4.2,4.8
		c0,1,3.2,3.6,3.8,4.3c3,3.4,6,6.9,9,10.3c4.4,5.1,8.8,10.1,13.2,15.2c4.2-4.9,8.5-9.7,12.7-14.6c3-3.5,6.1-6.9,9.1-10.4
		c0.7-0.8,4.2-3.7,4.2-4.8c0-1-3.2-3.6-3.8-4.3c-3-3.4-6-6.9-9-10.3C99.4,111.5,95,106.4,90.6,101.3"/>
	<path id="path17" class="st2" d="M73.2,111.3c9.4,0,18.8,0,28.2,0c1.2,0,6.4-0.8,6.4,0.6c0,4.2,0,8.4,0,12.6c0,1.9,0,26.5,0,26.5
		c-9.6,0-19.2,0-28.8,0c-1.1,0-5.8,0.8-5.8-0.6c0-4.2,0-8.4,0-12.6C73.2,128.9,73.2,120.1,73.2,111.3"/>
	<path id="path19" class="st2" d="M90.6,106.3c-3.6,4.1-7.2,8.3-10.8,12.4c-2.4,2.8-4.8,5.6-7.3,8.3c-0.6,0.7-3.6,3.2-3.6,4.1
		c0,0.8,2.7,3.1,3.2,3.7c2.5,2.9,5.1,5.8,7.6,8.7c3.6,4.1,7.2,8.3,10.8,12.4c3.6-4.1,7.2-8.3,10.8-12.4c2.4-2.8,4.8-5.5,7.3-8.3
		c0.6-0.7,3.6-3.2,3.6-4.1c0-0.8-2.7-3.1-3.2-3.7c-2.5-2.9-5.1-5.8-7.6-8.7C97.8,114.6,94.2,110.5,90.6,106.3"/>
	<path id="path21" class="st1" d="M75.4,113.8c9.2,0,18.5,0,27.7,0c3.3,0,2.6,0.3,2.6,3.6c0,5.6,0,11.2,0,16.7c0,4.6,0,9.1,0,13.7
		c0,1.6-5.7,0.7-7,0.7c-5.9,0-11.7,0-17.6,0c-2,0-5.8,1.2-5.8-1.3C75.4,136.1,75.4,124.9,75.4,113.8"/>
	<path id="path23" class="st1" d="M90.6,108.8c-3.2,3.6-6.3,7.3-9.5,10.9c-2.3,2.6-4.6,5.2-6.9,7.9c-0.5,0.6-3.1,2.8-3.1,3.6
		c0,0.7,2.3,2.7,2.8,3.2c2.2,2.6,4.5,5.1,6.7,7.7c3.3,3.8,6.7,7.6,10,11.5c3.2-3.6,6.3-7.3,9.5-10.9c2.3-2.6,4.6-5.2,6.9-7.9
		c0.5-0.6,3.1-2.8,3.1-3.6c0-0.7-2.3-2.7-2.8-3.2c-2.2-2.6-4.5-5.1-6.7-7.7C97.2,116.4,93.9,112.6,90.6,108.8"/>
	<path id="path25" class="st2" d="M90.6,111.3c-2.8,3.2-5.6,6.4-8.4,9.7c-2,2.3-3.9,4.5-5.9,6.8c-0.5,0.5-3,2.7-3,3.4
		c0,0.7,2.2,2.5,2.6,3c1.9,2.2,3.9,4.4,5.8,6.7c3,3.4,5.9,6.8,8.9,10.2c2.8-3.2,5.6-6.4,8.4-9.7c2-2.3,3.9-4.5,5.9-6.8
		c0.5-0.5,3-2.7,3-3.4c0-0.7-2.2-2.5-2.6-3c-1.9-2.2-3.9-4.4-5.8-6.7C96.5,118.1,93.5,114.7,90.6,111.3"/>
	<path id="path27" class="st2" d="M77.6,116.2c8.6,0,17.2,0,25.9,0c0.2,0,0.1,24.4,0.1,26.7c0,0.5,0.3,2.7,0,3.1
		c-0.4,0.4-3.5,0-4.1,0c-5.8,0-11.5,0-17.3,0c-1.5,0-3,0-4.5,0c-0.3,0-0.1-2.4-0.1-2.6c0-5.6,0-11.1,0-16.7
		C77.6,123.2,77.6,119.7,77.6,116.2"/>
	<path id="path29" class="st3" d="M90.6,116.2c-2.2,2.5-4.3,5-6.5,7.5c-1.5,1.7-3,3.4-4.5,5.1c-0.3,0.4-2,1.8-2,2.3
		c0,0.5,1.7,2,2,2.3c1.5,1.7,3,3.4,4.5,5.1c2.2,2.5,4.3,5,6.5,7.5c2.2-2.5,4.3-5,6.5-7.5c1.5-1.7,3-3.4,4.5-5.1c0.3-0.4,2-1.8,2-2.3
		c0-0.5-1.7-2-2-2.3c-1.5-1.7-3-3.4-4.5-5.1C94.9,121.2,92.7,118.7,90.6,116.2"/>
	<path id="path31" class="st2" d="M123,101.3c-1.4,0-2.9,0-4.3,0c1.4,1.7,2.9,3.3,4.3,5C123,104.7,123,103,123,101.3"/>
	<path id="path33" class="st2" d="M123,108.8c-1.4-1.7-2.9-3.3-4.3-5c0,1.6,0,3.2,0,4.8C118.7,108.9,122.5,108.8,123,108.8"/>
	<path id="path35" class="st2" d="M58.1,101.3c1.4,0,2.9,0,4.3,0c-1.4,1.7-2.9,3.3-4.3,5C58.1,104.7,58.1,103,58.1,101.3"/>
	<path id="path37" class="st2" d="M58.1,108.8c1.4-1.7,2.9-3.3,4.3-5c0,1.6,0,3.2,0,4.8C62.4,108.9,58.6,108.8,58.1,108.8"/>
	<path id="path39" class="st2" d="M62.4,153.5c-1.4,0-2.9,0-4.3,0c1.4,1.7,2.9,3.3,4.3,5C62.4,156.8,62.4,155.2,62.4,153.5"/>
	<path id="path41" class="st2" d="M62.4,161c-1.4-1.7-2.9-3.3-4.3-5c0,1.6,0,3.2,0,4.8C58.1,161.1,61.9,161,62.4,161"/>
	<path id="path43" class="st2" d="M118.7,153.5c1.4,0,2.9,0,4.3,0c-1.4,1.7-2.9,3.3-4.3,5C118.7,156.8,118.7,155.2,118.7,153.5"/>
	<path id="path45" class="st2" d="M118.7,161c1.4-1.7,2.9-3.3,4.3-5c0,1.6,0,3.2,0,4.8C123,161.1,119.3,161,118.7,161"/>
	<path id="path47" class="st2" d="M62.4,136.1c-1.4,0-2.9,0-4.3,0c1.4,1.7,2.9,3.3,4.3,5C62.4,139.4,62.4,137.8,62.4,136.1"/>
	<path id="path49" class="st2" d="M62.4,143.6c-1.4-1.7-2.9-3.3-4.3-5c0,1.6,0,3.2,0,4.8C58.1,143.7,61.9,143.6,62.4,143.6"/>
	<path id="path51" class="st2" d="M58.1,118.7c1.4,0,2.9,0,4.3,0c-1.4,1.7-2.9,3.3-4.3,5C58.1,122,58.1,120.4,58.1,118.7"/>
	<path id="path53" class="st2" d="M58.1,126.2c1.4-1.7,2.9-3.3,4.3-5c0,1.6,0,3.2,0,4.8C62.4,126.3,58.6,126.2,58.1,126.2"/>
	<path id="path55" class="st2" d="M123,118.7c-1.4,0-2.9,0-4.3,0c1.4,1.7,2.9,3.3,4.3,5C123,122,123,120.4,123,118.7"/>
	<path id="path57" class="st2" d="M123,126.2c-1.4-1.7-2.9-3.3-4.3-5c0,1.6,0,3.2,0,4.8C118.7,126.3,122.5,126.2,123,126.2"/>
	<path id="path59" class="st2" d="M118.7,136.1c1.4,0,2.9,0,4.3,0c-1.4,1.7-2.9,3.3-4.3,5C118.7,139.4,118.7,137.8,118.7,136.1"/>
	<path id="path61" class="st2" d="M118.7,143.6c1.4-1.7,2.9-3.3,4.3-5c0,1.6,0,3.2,0,4.8C123,143.7,119.3,143.6,118.7,143.6"/>
	<path id="path63" class="st3" d="M75.5,27.1c-0.9-2.2-1.8-4.4-2.4-6.7c-0.5-2.1-1-7.1,1.8-8c2.6-0.9,3.6,3.6,3.6,5.4
		c-0.1,2.7-1.3,5.4-2.3,7.9C75.9,26.1,75.7,26.6,75.5,27.1"/>
	<path id="path65" class="st3" d="M75.4,27.2c-2.2-0.9-4.6-1.8-6.5-3.2c-1.7-1.2-4.4-4.9-2.8-7.1c1.6-2.2,4.9,0.3,6,1.8
		c1.6,2.2,2.3,5.2,3.1,7.7C75.3,26.7,75.4,26.9,75.4,27.2"/>
	<path id="path67" class="st3" d="M75.4,27.2c2.2-0.9,4.6-1.8,6.5-3.2c1.7-1.2,4.4-4.9,2.8-7.1c-1.6-2.2-4.9,0.3-6,1.8
		c-1.6,2.2-2.3,5.3-3.1,7.8C75.6,26.8,75.5,27,75.4,27.2"/>
	<path id="path69" class="st3" d="M69.9,27.5c-1.8-0.5-3.9-0.3-5.1,1.3c-0.6,0.9-0.7,4.2,1.2,3.6c0.3-0.1,0.6-1.6,1-1.9
		c0.8-0.6,2.2-0.6,3.2-0.7c1.3-0.1,2.6,0,3.8-0.1c0,0,0,0,0,0C72.8,28.6,71.3,27.9,69.9,27.5"/>
	<path id="path71" class="st3" d="M80.9,27.5c1.8-0.5,3.9-0.3,5.1,1.3c0.6,0.9,0.7,4.2-1.2,3.6c-0.3-0.1-0.6-1.6-1-1.9
		c-0.8-0.6-2.2-0.6-3.2-0.7c-1.3-0.1-2.6,0-3.8-0.1c0,0,0,0,0,0C78,28.6,79.5,27.9,80.9,27.5"/>
	<path id="path73" class="st3" d="M74,32.3c0.3,2.2,4.1,1.1,2.2-1.9C74.9,28.3,74.2,30.3,74,32.3"/>
	<path id="path75" class="st3" d="M105.8,27.1c-0.9-2.2-1.8-4.4-2.4-6.7c-0.5-2.1-1-7.1,1.8-8c2.6-0.9,3.6,3.6,3.6,5.4
		c-0.1,2.7-1.3,5.4-2.3,7.9C106.2,26.1,106,26.6,105.8,27.1"/>
	<path id="path77" class="st3" d="M105.7,27.2c-2.2-0.9-4.6-1.8-6.5-3.2c-1.7-1.2-4.4-4.9-2.8-7.1c1.6-2.2,4.9,0.3,6,1.8
		c1.5,2.2,2.3,5.2,3.1,7.7C105.6,26.7,105.7,26.9,105.7,27.2"/>
	<path id="path79" class="st3" d="M105.8,27.2c2.2-0.9,4.6-1.8,6.5-3.2c1.7-1.2,4.4-4.9,2.8-7.1c-1.6-2.2-4.9,0.3-6,1.8
		c-1.6,2.2-2.3,5.3-3.1,7.8C105.9,26.8,105.8,27,105.8,27.2"/>
	<path id="path81" class="st3" d="M100.2,27.5c-1.8-0.5-3.9-0.3-5.1,1.3c-0.6,0.9-0.7,4.2,1.2,3.6c0.3-0.1,0.6-1.6,1-1.9
		c0.8-0.6,2.2-0.6,3.2-0.7c1.3-0.1,2.6,0,3.8-0.1c0,0,0,0,0,0C103.1,28.6,101.6,27.9,100.2,27.5"/>
	<path id="path83" class="st3" d="M111.2,27.5c1.8-0.5,3.9-0.3,5.1,1.3c0.6,0.9,0.7,4.2-1.2,3.6c-0.3-0.1-0.6-1.6-1-1.9
		c-0.8-0.6-2.2-0.6-3.2-0.7c-1.3-0.1-2.6,0-3.8-0.1c0,0,0,0,0,0C108.3,28.6,109.8,27.9,111.2,27.5"/>
	<path id="path85" class="st3" d="M104.3,32.3c0.3,2.2,4.1,1.1,2.2-1.9C105.2,28.3,104.5,30.3,104.3,32.3"/>
	<path id="path87" class="st3" d="M136.1,27.1c-0.9-2.2-1.8-4.4-2.4-6.7c-0.5-2.1-1-7.1,1.8-8c2.6-0.9,3.6,3.6,3.6,5.4
		c-0.1,2.7-1.3,5.4-2.3,7.9C136.5,26.1,136.3,26.6,136.1,27.1"/>
	<path id="path89" class="st3" d="M136.1,27.2c-2.2-0.9-4.6-1.8-6.5-3.2c-1.7-1.2-4.4-4.9-2.8-7.1c1.6-2.2,4.9,0.3,6,1.8
		c1.6,2.2,2.3,5.3,3.1,7.8C135.9,26.8,136,27,136.1,27.2"/>
	<path id="path91" class="st3" d="M136.1,27.2c2.2-0.9,4.6-1.8,6.5-3.2c1.7-1.2,4.4-4.9,2.8-7.1c-1.6-2.2-4.9,0.3-6,1.8
		c-1.6,2.2-2.3,5.3-3.1,7.8C136.2,26.8,136.1,27,136.1,27.2"/>
	<path id="path93" class="st3" d="M130.5,27.5c-1.8-0.5-3.9-0.3-5.1,1.3c-0.6,0.9-0.7,4.2,1.2,3.6c0.3-0.1,0.6-1.6,1-1.9
		c0.8-0.6,2.2-0.6,3.2-0.7c1.3-0.1,2.6,0,3.8-0.1c0,0,0,0,0,0C133.4,28.6,131.9,27.9,130.5,27.5"/>
	<path id="path95" class="st3" d="M141.5,27.5c1.8-0.5,3.9-0.3,5.1,1.3c0.6,0.9,0.7,4.2-1.2,3.6c-0.3-0.1-0.6-1.6-1-1.9
		c-0.8-0.6-2.2-0.6-3.2-0.7c-1.3-0.1-2.6,0-3.8-0.1c0,0,0,0,0,0C138.6,28.6,140.1,27.9,141.5,27.5"/>
	<path id="path97" class="st3" d="M134.6,32.3c0.3,2.2,4.1,1.1,2.2-1.9C135.5,28.3,134.8,30.3,134.6,32.3"/>
	<path id="path99" class="st3" d="M45.1,27.1c-0.9-2.2-1.8-4.4-2.4-6.7c-0.5-2.1-1-7.1,1.8-8c2.6-0.9,3.6,3.6,3.6,5.4
		c-0.1,2.7-1.3,5.4-2.3,7.9C45.5,26.1,45.3,26.6,45.1,27.1"/>
	<path id="path101" class="st3" d="M45.1,27.2c-2.2-0.9-4.6-1.8-6.5-3.2c-1.7-1.2-4.4-4.9-2.8-7.1c1.6-2.2,4.9,0.3,6,1.8
		c1.5,2.2,2.3,5.2,3.1,7.7C45,26.7,45,26.9,45.1,27.2"/>
	<path id="path103" class="st3" d="M45.1,27.2c2.2-0.9,4.6-1.8,6.5-3.2c1.7-1.2,4.4-4.9,2.8-7.1c-1.6-2.2-4.9,0.3-6,1.8
		c-1.5,2.2-2.3,5.2-3.1,7.7C45.3,26.7,45.2,26.9,45.1,27.2"/>
	<path id="path105" class="st3" d="M39.6,27.5c-1.8-0.5-3.9-0.3-5.1,1.3c-0.6,0.9-0.7,4.2,1.2,3.6c0.3-0.1,0.6-1.6,1-1.9
		c0.8-0.6,2.2-0.6,3.2-0.7c1.3-0.1,2.6,0,3.8-0.1c0,0,0,0,0,0C42.5,28.6,41,27.9,39.6,27.5"/>
	<path id="path107" class="st3" d="M50.6,27.5c1.8-0.5,3.9-0.3,5.1,1.3c0.6,0.9,0.7,4.2-1.2,3.6c-0.3-0.1-0.6-1.6-1-1.9
		c-0.8-0.6-2.2-0.6-3.2-0.7c-1.3-0.1-2.6,0-3.8-0.1c0,0,0,0,0,0C47.7,28.6,49.2,27.9,50.6,27.5"/>
	<path id="path109" class="st3" d="M43.6,32.3c0.3,2.2,4.1,1.1,2.2-1.9C44.6,28.3,43.9,30.3,43.6,32.3"/>
	<path id="path111" class="st3" d="M75.2,233.9c-0.9,2.2-1.8,4.4-2.4,6.7c-0.5,2.1-1,7.1,1.8,8c2.6,0.9,3.6-3.6,3.6-5.4
		c-0.1-2.7-1.3-5.4-2.3-7.9C75.6,234.9,75.4,234.4,75.2,233.9"/>
	<path id="path113" class="st3" d="M75.2,233.9c-2.2,0.9-4.6,1.8-6.5,3.2c-1.7,1.2-4.4,4.9-2.8,7.1c1.6,2.2,4.9-0.3,6-1.8
		c1.6-2.2,2.3-5.2,3.1-7.7C75,234.4,75.1,234.2,75.2,233.9"/>
	<path id="path115" class="st3" d="M75.2,233.9c2.2,0.9,4.6,1.8,6.5,3.2c1.7,1.2,4.4,4.9,2.8,7.1c-1.6,2.2-4.9-0.3-6-1.8
		c-1.6-2.2-2.3-5.3-3.1-7.8C75.3,234.3,75.2,234.1,75.2,233.9"/>
	<path id="path117" class="st3" d="M69.6,233.6c-1.8,0.5-3.9,0.3-5.1-1.3c-0.6-0.9-0.7-4.2,1.2-3.6c0.3,0.1,0.6,1.6,1,1.9
		c0.8,0.6,2.2,0.6,3.2,0.7c1.3,0.1,2.6,0,3.8,0.1c0,0,0,0,0,0C72.5,232.4,71,233.2,69.6,233.6"/>
	<path id="path119" class="st3" d="M80.7,233.6c1.8,0.5,3.9,0.3,5.1-1.3c0.6-0.9,0.7-4.2-1.2-3.6c-0.3,0.1-0.6,1.6-1,1.9
		c-0.8,0.6-2.2,0.6-3.2,0.7c-1.3,0.1-2.6,0-3.8,0.1c0,0,0,0,0,0C77.7,232.4,79.2,233.2,80.7,233.6"/>
	<path id="path121" class="st3" d="M73.7,228.8c0.3-2.2,4.1-1.1,2.2,1.9C74.7,232.8,73.9,230.8,73.7,228.8"/>
	<path id="path123" class="st3" d="M105.5,233.9c-0.9,2.2-1.8,4.4-2.4,6.7c-0.5,2.1-1,7.1,1.8,8c2.6,0.9,3.6-3.6,3.6-5.4
		c-0.1-2.7-1.3-5.4-2.3-7.9C105.9,234.9,105.7,234.4,105.5,233.9"/>
	<path id="path125" class="st3" d="M105.5,233.9c-2.2,0.9-4.6,1.8-6.5,3.2c-1.7,1.2-4.4,4.9-2.8,7.1c1.6,2.2,4.9-0.3,6-1.8
		c1.6-2.2,2.3-5.3,3.1-7.8C105.4,234.3,105.4,234.1,105.5,233.9"/>
	<path id="path127" class="st3" d="M105.5,233.9c2.2,0.9,4.6,1.8,6.5,3.2c1.7,1.2,4.4,4.9,2.8,7.1c-1.6,2.2-4.9-0.3-6-1.8
		c-1.6-2.2-2.3-5.3-3.1-7.8C105.6,234.3,105.5,234.1,105.5,233.9"/>
	<path id="path129" class="st3" d="M99.9,233.6c-1.8,0.5-3.9,0.3-5.1-1.3c-0.6-0.9-0.7-4.2,1.2-3.6c0.3,0.1,0.6,1.6,1,1.9
		c0.8,0.6,2.2,0.6,3.2,0.7c1.3,0.1,2.6,0,3.8,0.1c0,0,0,0,0,0C102.8,232.4,101.3,233.2,99.9,233.6"/>
	<path id="path131" class="st3" d="M111,233.6c1.8,0.5,3.9,0.3,5.1-1.3c0.6-0.9,0.7-4.2-1.2-3.6c-0.3,0.1-0.6,1.6-1,1.9
		c-0.8,0.6-2.2,0.6-3.2,0.7c-1.3,0.1-2.6,0-3.8,0.1c0,0,0,0,0,0C108,232.4,109.5,233.2,111,233.6"/>
	<path id="path133" class="st3" d="M104,228.8c0.3-2.2,4.1-1.1,2.2,1.9C105,232.8,104.2,230.8,104,228.8"/>
	<path id="path135" class="st3" d="M135.8,233.9c-0.9,2.2-1.8,4.4-2.4,6.7c-0.5,2.1-1,7.1,1.8,8c2.6,0.9,3.6-3.6,3.6-5.4
		c-0.1-2.7-1.3-5.4-2.3-7.9C136.2,234.9,136,234.4,135.8,233.9"/>
	<path id="path137" class="st3" d="M135.8,233.9c-2.2,0.9-4.6,1.8-6.5,3.2c-1.7,1.2-4.4,4.9-2.8,7.1c1.6,2.2,4.9-0.3,6-1.8
		c1.6-2.2,2.3-5.2,3.1-7.7C135.6,234.4,135.7,234.2,135.8,233.9"/>
	<path id="path139" class="st3" d="M135.8,233.9c2.2,0.9,4.6,1.8,6.5,3.2c1.7,1.2,4.4,4.9,2.8,7.1c-1.6,2.2-4.9-0.3-6-1.8
		c-1.6-2.2-2.3-5.2-3.1-7.7C136,234.4,135.9,234.2,135.8,233.9"/>
	<path id="path141" class="st3" d="M130.2,233.6c-1.8,0.5-3.9,0.3-5.1-1.3c-0.6-0.9-0.7-4.2,1.2-3.6c0.3,0.1,0.6,1.6,1,1.9
		c0.8,0.6,2.2,0.6,3.2,0.7c1.3,0.1,2.6,0,3.8,0.1c0,0,0,0,0,0C133.1,232.4,131.6,233.2,130.2,233.6"/>
	<path id="path143" class="st3" d="M141.3,233.6c1.8,0.5,3.9,0.3,5.1-1.3c0.6-0.9,0.7-4.2-1.2-3.6c-0.3,0.1-0.6,1.6-1,1.9
		c-0.8,0.6-2.2,0.6-3.2,0.7c-1.3,0.1-2.6,0-3.8,0.1c0,0,0,0,0,0C138.3,232.4,139.9,233.2,141.3,233.6"/>
	<path id="path145" class="st3" d="M134.3,228.8c0.3-2.2,4.1-1.1,2.2,1.9C135.3,232.8,134.5,230.8,134.3,228.8"/>
	<path id="path147" class="st3" d="M44.9,233.9c-0.9,2.2-1.8,4.4-2.4,6.7c-0.5,2.1-1,7.1,1.8,8c2.6,0.9,3.6-3.6,3.6-5.4
		c-0.1-2.7-1.3-5.4-2.3-7.9C45.3,234.9,45.1,234.4,44.9,233.9"/>
	<path id="path149" class="st3" d="M44.9,233.9c-2.2,0.9-4.6,1.8-6.5,3.2c-1.7,1.2-4.4,4.9-2.8,7.1c1.6,2.2,4.9-0.3,6-1.8
		c1.5-2.2,2.3-5.2,3.1-7.7C44.7,234.4,44.8,234.2,44.9,233.9"/>
	<path id="path151" class="st3" d="M44.9,233.9c2.2,0.9,4.6,1.8,6.5,3.2c1.7,1.2,4.4,4.9,2.8,7.1c-1.6,2.2-4.9-0.3-6-1.8
		c-1.6-2.2-2.3-5.3-3.1-7.8C45,234.3,44.9,234.1,44.9,233.9"/>
	<path id="path153" class="st3" d="M39.3,233.6c-1.8,0.5-3.9,0.3-5.1-1.3c-0.6-0.9-0.7-4.2,1.2-3.6c0.3,0.1,0.6,1.6,1,1.9
		c0.8,0.6,2.2,0.6,3.2,0.7c1.3,0.1,2.6,0,3.8,0.1c0,0,0,0,0,0C42.2,232.4,40.7,233.2,39.3,233.6"/>
	<path id="path155" class="st3" d="M50.3,233.6c1.8,0.5,3.9,0.3,5.1-1.3c0.6-0.9,0.7-4.2-1.2-3.6c-0.3,0.1-0.6,1.6-1,1.9
		c-0.8,0.6-2.2,0.6-3.2,0.7c-1.3,0.1-2.6,0-3.8,0.1c0,0,0,0,0,0C47.4,232.4,48.9,233.2,50.3,233.6"/>
	<path id="path157" class="st3" d="M43.4,228.8c0.3-2.2,4.1-1.1,2.2,1.9C44.3,232.8,43.6,230.8,43.4,228.8"/>
	<path id="path159" class="st3" d="M158.5,235.4c2.1,1.1,4.3,2.5,6.6,3c2.1,0.5,6,0,6.4-2.7c0.4-2.6-3.4-3.8-5.4-3.6
		c-2.5,0.3-5.2,2-7.4,3.2C158.7,235.4,158.6,235.4,158.5,235.4"/>
	<path id="path161" class="st3" d="M158.5,235.4c0.9,2.8,3.6,13.5,8.6,11c2.4-1.2,0.5-5.3-0.8-6.7c-1.8-1.9-4.7-3-7.1-4
		C159,235.6,158.7,235.5,158.5,235.4"/>
	<path id="path163" class="st3" d="M158.5,235.4c0.9-2.8,3.6-13.5,8.6-11c2.4,1.2,0.5,5.3-0.8,6.7c-1.8,2-4.7,3-7.1,4
		C159,235.2,158.7,235.3,158.5,235.4"/>
	<path id="path165" class="st3" d="M158.2,241.8c0.4,1.8,0.5,4.5-1.1,5.8c-1,0.9-3.7,0.6-3.1-1.3c0.1-0.4,1.4-0.7,1.7-1.2
		c0.6-0.9,0.5-2.6,0.6-3.6c0.1-1.5,0-2.9,0.1-4.4c0,0,0,0,0,0C157.3,238.5,157.9,240.2,158.2,241.8"/>
	<path id="path167" class="st3" d="M158.2,229.1c0.4-1.8,0.5-4.5-1.1-5.8c-1-0.9-3.7-0.6-3.1,1.3c0.1,0.4,1.4,0.7,1.7,1.2
		c0.6,0.9,0.5,2.6,0.6,3.6c0.1,1.5,0,2.9,0.1,4.4c0,0,0,0,0,0C157.3,232.4,157.9,230.7,158.2,229.1"/>
	<path id="path169" class="st3" d="M154,237.1c-2-0.5-1.1-4.7,1.6-2.6C157.4,235.9,156.1,236.8,154,237.1"/>
	<path id="path171" class="st3" d="M158.6,200.6c2.1,1.1,4.3,2.5,6.6,3c2.1,0.5,6,0,6.4-2.7c0.4-2.6-3.4-3.8-5.4-3.6
		c-2.5,0.3-5.2,2-7.4,3.2C158.7,200.6,158.6,200.6,158.6,200.6"/>
	<path id="path173" class="st3" d="M158.5,200.7c0.9,2.8,3.6,13.5,8.6,11c2.4-1.2,0.5-5.3-0.8-6.7c-1.8-1.9-4.7-3-7.1-4
		C159,200.8,158.7,200.8,158.5,200.7"/>
	<path id="path175" class="st3" d="M158.5,200.7c0.9-2.8,3.6-13.5,8.6-11c2.4,1.2,0.5,5.3-0.8,6.7c-1.8,2-4.7,3-7.1,4
		C159,200.5,158.7,200.6,158.5,200.7"/>
	<path id="path177" class="st3" d="M158.2,207c0.4,1.8,0.5,4.5-1.1,5.8c-1,0.9-3.7,0.6-3.1-1.3c0.1-0.4,1.4-0.7,1.7-1.2
		c0.6-0.9,0.5-2.6,0.6-3.6c0.1-1.5,0-2.9,0.1-4.4c0,0,0,0,0,0C157.3,203.7,157.9,205.5,158.2,207"/>
	<path id="path179" class="st3" d="M158.2,194.4c0.4-1.8,0.5-4.5-1.1-5.8c-1-0.9-3.7-0.6-3.1,1.3c0.1,0.4,1.4,0.7,1.7,1.2
		c0.6,0.9,0.5,2.6,0.6,3.6c0.1,1.5,0,2.9,0.1,4.4c0,0,0,0,0,0C157.3,197.7,157.9,196,158.2,194.4"/>
	<path id="path181" class="st3" d="M154,202.4c-2-0.5-1.1-4.7,1.6-2.6C157.4,201.1,156.1,202,154,202.4"/>
	<path id="path183" class="st3" d="M158.5,165.9c2.1,1.1,4.3,2.5,6.6,3c2.1,0.5,6,0,6.4-2.7c0.4-2.6-3.4-3.8-5.4-3.6
		c-2.5,0.3-5.2,2-7.4,3.2C158.7,165.8,158.6,165.8,158.5,165.9"/>
	<path id="path185" class="st3" d="M158.5,165.9c0.9,2.8,3.6,13.5,8.6,11c2.4-1.2,0.5-5.3-0.8-6.7c-1.8-2-4.7-3-7.1-4
		C159,166.1,158.7,166,158.5,165.9"/>
	<path id="path187" class="st3" d="M158.5,165.9c0.9-2.8,3.6-13.5,8.6-11c2.4,1.2,0.5,5.3-0.8,6.7c-1.8,1.9-4.7,3-7.1,4
		C159,165.7,158.7,165.8,158.5,165.9"/>
	<path id="path189" class="st3" d="M158.2,172.3c0.4,1.8,0.5,4.5-1.1,5.8c-1,0.9-3.7,0.6-3.1-1.3c0.1-0.4,1.4-0.7,1.7-1.2
		c0.6-0.9,0.5-2.6,0.6-3.6c0.1-1.4-0.1-3,0.1-4.4C157.3,168.9,157.9,170.7,158.2,172.3"/>
	<path id="path191" class="st3" d="M158.2,159.6c0.4-1.8,0.5-4.5-1.1-5.8c-1-0.9-3.7-0.6-3.1,1.3c0.1,0.4,1.4,0.7,1.7,1.2
		c0.6,0.9,0.5,2.6,0.6,3.6c0.1,1.4-0.1,3,0.1,4.4C157.3,162.9,157.9,161.2,158.2,159.6"/>
	<path id="path193" class="st3" d="M154,167.6c-2-0.5-1.1-4.7,1.6-2.6C157.4,166.3,156.1,167.2,154,167.6"/>
	<path id="path195" class="st3" d="M158.5,96.3c2.1,1.1,4.3,2.5,6.6,3c2.1,0.5,6,0,6.4-2.7c0.4-2.6-3.4-3.8-5.4-3.6
		c-2.5,0.3-5.2,2-7.4,3.2C158.7,96.2,158.6,96.3,158.5,96.3"/>
	<path id="path197" class="st3" d="M158.5,96.3c0.9,2.8,3.6,13.5,8.6,11c2.4-1.2,0.5-5.3-0.8-6.7c-1.8-1.9-4.7-3-7.1-4
		C159,96.5,158.7,96.4,158.5,96.3"/>
	<path id="path199" class="st3" d="M158.5,96.3c0.9-2.8,3.6-13.5,8.6-11c2.4,1.2,0.5,5.3-0.8,6.7c-1.8,2-4.7,3-7.1,4
		C159,96.1,158.7,96.2,158.5,96.3"/>
	<path id="path201" class="st3" d="M158.2,102.7c0.4,1.8,0.5,4.5-1.1,5.8c-1.1,0.9-3.7,0.5-3.1-1.4c0.1-0.3,1.4-0.8,1.7-1.3
		c0.6-0.9,0.5-2.6,0.6-3.7c0.1-1.4-0.1-2.9,0.1-4.2C157.3,99.4,157.9,101.1,158.2,102.7"/>
	<path id="path203" class="st3" d="M158.2,90c0.4-1.8,0.5-4.5-1.1-5.8c-1-0.9-3.7-0.6-3.1,1.3c0.1,0.4,1.4,0.7,1.7,1.2
		c0.6,0.9,0.5,2.6,0.6,3.6c0.1,1.5,0,2.9,0.1,4.4c0,0,0,0,0,0C157.3,93.3,157.9,91.6,158.2,90"/>
	<path id="path205" class="st3" d="M154,98c-2-0.5-1.1-4.7,1.6-2.6C157.4,96.7,156.1,97.7,154,98"/>
	<path id="path207" class="st3" d="M158.6,61.5c2.1,1.1,4.3,2.5,6.6,3c2.1,0.5,6,0,6.4-2.7c0.4-2.6-3.4-3.8-5.4-3.6
		c-2.5,0.3-5.2,2-7.4,3.2C158.7,61.4,158.6,61.5,158.6,61.5"/>
	<path id="path209" class="st3" d="M158.5,61.5c0.9,2.8,3.6,13.5,8.6,11c2.4-1.2,0.5-5.3-0.8-6.7c-1.8-2-4.7-3-7.1-4
		C159,61.7,158.7,61.6,158.5,61.5"/>
	<path id="path211" class="st3" d="M158.5,61.5c0.9-2.8,3.6-13.5,8.6-11c2.4,1.2,0.5,5.3-0.8,6.7c-1.8,2-4.7,3-7.1,4
		C159,61.3,158.7,61.4,158.5,61.5"/>
	<path id="path213" class="st3" d="M158.2,67.9c0.4,1.8,0.5,4.5-1.1,5.8c-1,0.9-3.7,0.6-3.1-1.3c0.1-0.4,1.4-0.7,1.7-1.2
		c0.6-0.9,0.5-2.6,0.6-3.6c0.1-1.5,0-2.9,0.1-4.4c0,0,0,0,0,0C157.3,64.6,157.9,66.3,158.2,67.9"/>
	<path id="path215" class="st3" d="M158.2,55.2c0.4-1.8,0.5-4.5-1.1-5.8c-1-0.9-3.7-0.6-3.1,1.3c0.1,0.4,1.4,0.7,1.7,1.2
		c0.6,0.9,0.5,2.6,0.6,3.6c0.1,1.5,0,2.9,0.1,4.4c0,0,0,0,0,0C157.3,58.5,157.9,56.8,158.2,55.2"/>
	<path id="path217" class="st3" d="M154,63.2c-2-0.5-1.1-4.7,1.6-2.6C157.4,61.9,156.1,62.9,154,63.2"/>
	<path id="path219" class="st3" d="M158.5,26.7c2.1,1.1,4.3,2.5,6.6,3c2.1,0.5,6,0,6.4-2.7c0.4-2.6-3.4-3.8-5.4-3.6
		c-2.5,0.3-5.2,2-7.4,3.2C158.7,26.7,158.6,26.7,158.5,26.7"/>
	<path id="path221" class="st3" d="M158.5,26.8c0.9,2.8,3.6,13.5,8.6,11c2.4-1.2,0.5-5.3-0.8-6.7c-1.8-2-4.7-3-7.1-4
		C159,26.9,158.7,26.8,158.5,26.8"/>
	<path id="path223" class="st3" d="M158.5,26.7c0.9-2.8,3.6-13.5,8.6-11c2.4,1.2,0.5,5.3-0.8,6.7c-1.8,2-4.7,3-7.1,4
		C159,26.6,158.7,26.6,158.5,26.7"/>
	<path id="path225" class="st3" d="M158.2,33.1c0.4,1.8,0.5,4.5-1.1,5.8c-1,0.9-3.7,0.6-3.1-1.3c0.1-0.4,1.4-0.7,1.7-1.2
		c0.6-0.9,0.5-2.6,0.6-3.6c0.1-1.4-0.1-3,0.1-4.4C157.3,29.8,157.9,31.6,158.2,33.1"/>
	<path id="path227" class="st3" d="M158.2,20.5c0.4-1.8,0.5-4.5-1.1-5.8c-1-0.9-3.7-0.6-3.1,1.3c0.1,0.4,1.4,0.7,1.7,1.2
		c0.6,0.9,0.5,2.6,0.6,3.6c0.1,1.4-0.1,3,0.1,4.4C157.3,23.8,157.9,22,158.2,20.5"/>
	<path id="path229" class="st3" d="M154,28.5c-2-0.5-1.1-4.7,1.6-2.6C157.4,27.2,156.1,28.1,154,28.5"/>
	<path id="path231" class="st3" d="M158.5,131.1c2.1,1.1,4.3,2.5,6.6,3c2.1,0.5,6,0,6.4-2.7c0.4-2.6-3.4-3.8-5.4-3.6
		c-2.5,0.3-5.2,2-7.4,3.2C158.7,131,158.6,131,158.5,131.1"/>
	<path id="path233" class="st3" d="M158.5,131.1c0.9,2.8,3.6,13.5,8.6,11c2.4-1.2,0.5-5.3-0.8-6.7c-1.8-1.9-4.7-3-7.1-4
		C159,131.3,158.7,131.2,158.5,131.1"/>
	<path id="path235" class="st3" d="M158.5,131.1c0.9-2.8,3.6-13.5,8.6-11c2.4,1.2,0.5,5.3-0.8,6.7c-1.8,2-4.7,3-7.1,4
		C159,130.9,158.7,131,158.5,131.1"/>
	<path id="path237" class="st3" d="M158.2,137.5c0.4,1.8,0.5,4.5-1.1,5.8c-1,0.9-3.7,0.6-3.1-1.3c0.1-0.4,1.4-0.7,1.7-1.2
		c0.6-0.9,0.5-2.6,0.6-3.6c0.1-1.4,0-2.9,0.1-4.4c0,0,0,0,0,0C157.3,134.2,157.9,135.9,158.2,137.5"/>
	<path id="path239" class="st3" d="M158.2,124.8c0.4-1.8,0.5-4.5-1.1-5.8c-1-0.9-3.7-0.6-3.1,1.3c0.1,0.4,1.4,0.7,1.7,1.2
		c0.6,0.9,0.5,2.6,0.6,3.6c0.1,1.4-0.1,3,0.1,4.4C157.3,128.1,157.9,126.4,158.2,124.8"/>
	<path id="path241" class="st3" d="M154,132.8c-2-0.5-1.1-4.7,1.6-2.6C157.4,131.5,156.1,132.5,154,132.8"/>
	<path id="path243" class="st3" d="M22.6,235.4c-2.1,1.1-4.3,2.5-6.6,3c-2.1,0.5-6,0-6.4-2.7c-0.4-2.6,3.4-3.8,5.4-3.6
		c2.5,0.3,5.2,2,7.4,3.2C22.4,235.4,22.5,235.4,22.6,235.4"/>
	<path id="path245" class="st3" d="M22.6,235.4c-0.9,2.8-3.6,13.5-8.6,11c-2.4-1.2-0.5-5.3,0.8-6.7c1.8-1.9,4.7-3,7.1-4
		C22.2,235.6,22.4,235.5,22.6,235.4"/>
	<path id="path247" class="st3" d="M22.6,235.4c-0.9-2.8-3.6-13.5-8.6-11c-2.4,1.2-0.5,5.3,0.8,6.7c1.8,1.9,4.7,3,7.1,4
		C22.2,235.2,22.4,235.3,22.6,235.4"/>
	<path id="path249" class="st3" d="M22.9,241.8c-0.4,1.8-0.5,4.5,1.1,5.8c1,0.9,3.7,0.6,3.1-1.3c-0.1-0.4-1.4-0.7-1.7-1.2
		c-0.6-0.9-0.5-2.6-0.6-3.6c-0.1-1.5,0.1-2.9-0.1-4.4c0,0,0,0,0,0C23.8,238.5,23.2,240.2,22.9,241.8"/>
	<path id="path251" class="st3" d="M22.9,229.1c-0.4-1.8-0.5-4.5,1.1-5.8c1-0.9,3.7-0.6,3.1,1.3c-0.1,0.4-1.4,0.7-1.7,1.2
		c-0.6,0.9-0.5,2.6-0.6,3.6c-0.1,1.5,0.1,2.9-0.1,4.4c0,0,0,0,0,0C23.8,232.4,23.2,230.7,22.9,229.1"/>
	<path id="path253" class="st3" d="M27.1,237.1c2-0.5,1.1-4.7-1.6-2.6C23.8,235.9,25,236.8,27.1,237.1"/>
	<path id="path255" class="st3" d="M22.6,200.6c-2.1,1.1-4.3,2.5-6.6,3c-2.1,0.5-6,0-6.4-2.7c-0.4-2.6,3.4-3.8,5.4-3.6
		c2.5,0.3,5.2,2,7.4,3.2C22.4,200.6,22.5,200.6,22.6,200.6"/>
	<path id="path257" class="st3" d="M22.6,200.7c-0.9,2.8-3.6,13.5-8.6,11c-2.4-1.2-0.5-5.3,0.8-6.7c1.8-1.9,4.7-3,7.1-4
		C22.2,200.8,22.4,200.8,22.6,200.7"/>
	<path id="path259" class="st3" d="M22.6,200.7c-0.9-2.8-3.6-13.5-8.6-11c-2.4,1.2-0.5,5.3,0.8,6.7c1.8,1.9,4.7,3,7.1,4
		C22.2,200.5,22.4,200.6,22.6,200.7"/>
	<path id="path261" class="st3" d="M22.9,207c-0.4,1.8-0.5,4.5,1.1,5.8c1,0.9,3.7,0.6,3.1-1.3c-0.1-0.4-1.4-0.7-1.7-1.2
		c-0.6-0.9-0.5-2.6-0.6-3.6c-0.1-1.5,0.1-2.9-0.1-4.4c0,0,0,0,0,0C23.8,203.8,23.2,205.5,22.9,207"/>
	<path id="path263" class="st3" d="M22.9,194.4c-0.4-1.8-0.5-4.5,1.1-5.8c1-0.9,3.7-0.6,3.1,1.3c-0.1,0.4-1.4,0.7-1.7,1.2
		c-0.6,0.9-0.5,2.6-0.6,3.6c-0.1,1.5,0.1,2.9-0.1,4.4c0,0,0,0,0,0C23.8,197.7,23.2,196,22.9,194.4"/>
	<path id="path265" class="st3" d="M27.1,202.4c2-0.5,1.1-4.7-1.6-2.6C23.8,201.1,25,202,27.1,202.4"/>
	<path id="path267" class="st3" d="M22.6,165.9c-2.1,1.1-4.3,2.5-6.6,3c-2.1,0.5-6,0-6.4-2.7c-0.4-2.6,3.4-3.8,5.4-3.6
		c2.5,0.3,5.2,2,7.4,3.2C22.4,165.8,22.5,165.8,22.6,165.9"/>
	<path id="path269" class="st3" d="M22.6,165.9c-0.9,2.8-3.6,13.5-8.6,11c-2.4-1.2-0.5-5.3,0.8-6.7c1.8-1.9,4.7-3,7.1-4
		C22.2,166.1,22.4,166,22.6,165.9"/>
	<path id="path271" class="st3" d="M22.6,165.9c-0.9-2.8-3.6-13.5-8.6-11c-2.4,1.2-0.5,5.3,0.8,6.7c1.8,1.9,4.7,3,7.1,4
		C22.2,165.7,22.4,165.8,22.6,165.9"/>
	<path id="path273" class="st3" d="M22.9,172.3c-0.4,1.8-0.5,4.5,1.1,5.8c1,0.9,3.7,0.6,3.1-1.3c-0.1-0.4-1.4-0.7-1.7-1.2
		c-0.6-0.9-0.5-2.6-0.6-3.6c-0.1-1.4,0.1-3-0.1-4.4C23.8,168.9,23.2,170.7,22.9,172.3"/>
	<path id="path275" class="st3" d="M22.9,159.6c-0.4-1.8-0.5-4.5,1.1-5.8c1-0.9,3.7-0.6,3.1,1.3c-0.1,0.4-1.4,0.7-1.7,1.2
		c-0.6,0.9-0.5,2.6-0.6,3.6c-0.1,1.4,0.1,3-0.1,4.4C23.8,162.9,23.2,161.2,22.9,159.6"/>
	<path id="path277" class="st3" d="M27.1,167.6c2-0.5,1.1-4.7-1.6-2.6C23.7,166.3,25,167.2,27.1,167.6"/>
	<path id="path279" class="st3" d="M22.6,96.3c-2.1,1.1-4.3,2.5-6.6,3c-2.1,0.5-6,0-6.4-2.7C9.2,94,13,92.8,15,93
		c2.5,0.3,5.2,2,7.4,3.2C22.4,96.2,22.5,96.3,22.6,96.3"/>
	<path id="path281" class="st3" d="M22.6,96.3c-0.9,2.8-3.6,13.5-8.6,11c-2.4-1.2-0.5-5.3,0.8-6.7c1.8-1.9,4.7-3,7.1-4
		C22.2,96.5,22.4,96.4,22.6,96.3"/>
	<path id="path283" class="st3" d="M22.6,96.3c-0.9-2.8-3.6-13.5-8.6-11c-2.4,1.2-0.5,5.3,0.8,6.7c1.8,2,4.7,3,7.1,4
		C22.2,96.1,22.4,96.2,22.6,96.3"/>
	<path id="path285" class="st3" d="M22.9,102.7c-0.4,1.8-0.5,4.5,1.1,5.8c1.1,0.9,3.7,0.5,3.1-1.4c-0.1-0.3-1.4-0.8-1.7-1.3
		c-0.6-0.9-0.5-2.6-0.6-3.7c-0.1-1.4,0.1-2.9-0.1-4.2C23.8,99.4,23.2,101.1,22.9,102.7"/>
	<path id="path287" class="st3" d="M22.9,90c-0.4-1.8-0.5-4.5,1.1-5.8c1-0.9,3.7-0.6,3.1,1.3c-0.1,0.4-1.4,0.7-1.7,1.2
		c-0.6,0.9-0.5,2.6-0.6,3.6c-0.1,1.5,0.1,2.9-0.1,4.4c0,0,0,0,0,0C23.8,93.3,23.2,91.6,22.9,90"/>
	<path id="path289" class="st3" d="M27.1,98c2-0.5,1.1-4.7-1.6-2.6C23.8,96.7,25,97.7,27.1,98"/>
	<path id="path291" class="st3" d="M22.6,61.5c-2.1,1.1-4.3,2.5-6.6,3c-2.1,0.5-6,0-6.4-2.7C9.2,59.2,13,58,15,58.3
		c2.5,0.3,5.2,2,7.4,3.2C22.4,61.4,22.5,61.5,22.6,61.5"/>
	<path id="path293" class="st3" d="M22.6,61.5C21.7,64.3,19,75,14,72.5c-2.4-1.2-0.5-5.3,0.8-6.7c1.8-1.9,4.7-3,7.1-4
		C22.2,61.7,22.4,61.6,22.6,61.5"/>
	<path id="path295" class="st3" d="M22.6,61.5C21.7,58.7,19,48,14,50.6c-2.4,1.2-0.5,5.3,0.8,6.7c1.8,1.9,4.7,3,7.1,4
		C22.2,61.3,22.4,61.4,22.6,61.5"/>
	<path id="path297" class="st3" d="M22.9,67.9c-0.4,1.8-0.5,4.5,1.1,5.8c1,0.9,3.7,0.6,3.1-1.3c-0.1-0.4-1.4-0.7-1.7-1.2
		c-0.6-0.9-0.5-2.6-0.6-3.6c-0.1-1.5,0.1-2.9-0.1-4.4c0,0,0,0,0,0C23.8,64.6,23.2,66.3,22.9,67.9"/>
	<path id="path299" class="st3" d="M22.9,55.2c-0.4-1.8-0.5-4.5,1.1-5.8c1-0.9,3.7-0.6,3.1,1.3c-0.1,0.4-1.4,0.7-1.7,1.2
		c-0.6,0.9-0.5,2.6-0.6,3.6c-0.1,1.5,0.1,2.9-0.1,4.4c0,0,0,0,0,0C23.8,58.5,23.2,56.8,22.9,55.2"/>
	<path id="path301" class="st3" d="M27.1,63.2c2-0.5,1.1-4.7-1.6-2.6C23.8,61.9,25,62.9,27.1,63.2"/>
	<path id="path303" class="st3" d="M22.6,26.7c-2.1,1.1-4.3,2.5-6.6,3c-2.1,0.5-6,0-6.4-2.7c-0.4-2.6,3.4-3.8,5.4-3.6
		c2.5,0.3,5.2,2,7.4,3.2C22.4,26.7,22.5,26.7,22.6,26.7"/>
	<path id="path305" class="st3" d="M22.6,26.8c-0.9,2.8-3.6,13.5-8.6,11c-2.4-1.2-0.5-5.3,0.8-6.7c1.8-1.9,4.7-3,7.1-4
		C22.2,26.9,22.4,26.8,22.6,26.8"/>
	<path id="path307" class="st3" d="M22.6,26.7c-0.9-2.8-3.6-13.5-8.6-11c-2.4,1.2-0.5,5.3,0.8,6.7c1.8,1.9,4.7,3,7.1,4
		C22.2,26.6,22.4,26.6,22.6,26.7"/>
	<path id="path309" class="st3" d="M22.9,33.1c-0.4,1.8-0.5,4.5,1.1,5.8c1,0.9,3.7,0.6,3.1-1.3c-0.1-0.4-1.4-0.7-1.7-1.2
		c-0.6-0.9-0.5-2.6-0.6-3.6c-0.1-1.4,0.1-3-0.1-4.4C23.8,29.8,23.2,31.6,22.9,33.1"/>
	<path id="path311" class="st3" d="M22.9,20.5c-0.4-1.8-0.5-4.5,1.1-5.8c1-0.9,3.7-0.6,3.1,1.3c-0.1,0.4-1.4,0.7-1.7,1.2
		c-0.6,0.9-0.5,2.6-0.6,3.6c-0.1,1.4,0.1,3-0.1,4.4C23.8,23.8,23.2,22,22.9,20.5"/>
	<path id="path313" class="st3" d="M27.1,28.5c2-0.5,1.1-4.7-1.6-2.6C23.7,27.2,25,28.1,27.1,28.5"/>
	<path id="path315" class="st3" d="M22.6,131.1c-2.1,1.1-4.3,2.5-6.6,3c-2.1,0.5-6,0-6.4-2.7c-0.4-2.6,3.4-3.8,5.4-3.6
		c2.5,0.3,5.2,2,7.4,3.2C22.4,131,22.5,131,22.6,131.1"/>
	<path id="path317" class="st3" d="M22.6,131.1c-0.9,2.8-3.6,13.5-8.6,11c-2.4-1.2-0.5-5.3,0.8-6.7c1.8-1.9,4.7-3,7.1-4
		C22.2,131.3,22.4,131.2,22.6,131.1"/>
	<path id="path319" class="st3" d="M22.6,131.1c-0.9-2.8-3.6-13.5-8.6-11c-2.4,1.2-0.5,5.3,0.8,6.7c1.8,1.9,4.7,3,7.1,4
		C22.2,130.9,22.4,131,22.6,131.1"/>
	<path id="path321" class="st3" d="M22.9,137.5c-0.4,1.8-0.5,4.5,1.1,5.8c1,0.9,3.7,0.6,3.1-1.3c-0.1-0.4-1.4-0.7-1.7-1.2
		c-0.6-0.9-0.5-2.6-0.6-3.6c-0.1-1.4,0.1-2.9-0.1-4.4c0,0,0,0,0,0C23.8,134.2,23.2,135.9,22.9,137.5"/>
	<path id="path323" class="st3" d="M22.9,124.8c-0.4-1.8-0.5-4.5,1.1-5.8c1-0.9,3.7-0.6,3.1,1.3c-0.1,0.4-1.4,0.7-1.7,1.2
		c-0.6,0.9-0.5,2.6-0.6,3.6c-0.1,1.4,0.1,3-0.1,4.4C23.8,128.1,23.2,126.4,22.9,124.8"/>
	<path id="path325" class="st3" d="M27.1,132.8c2-0.5,1.1-4.7-1.6-2.6C23.8,131.5,25,132.5,27.1,132.8"/>
	<path id="path327" class="st4" d="M79.2,158.2L79.2,158.2"/>
	<path id="path329" class="st1" d="M81.9,121.2c1.8,0,17.3-0.1,17.3,0.1c0,3.5,0,7,0,10.5c0,2,0,4.1,0,6.1c0,0.5,0.3,2.7,0,3.1
		c-1.1,1.2-17.3-0.7-17.3-0.1C81.9,134.4,81.9,127.8,81.9,121.2"/>
	<path id="path331" class="st5" d="M83,124.9c0.7-0.8,1.4-1.7,2.2-2.5c0.4,1.2,0.7,2.5,1.1,3.7C85.1,125.8,84.1,125.4,83,124.9"/>
	<path id="path333" class="st5" d="M96,122.5c0.7,0.8,1.4,1.7,2.2,2.5c-1.1,0.4-2.2,0.8-3.2,1.2C95.2,124.9,95.6,123.7,96,122.5"/>
	<path id="path335" class="st5" d="M96,139.8c0.7-0.8,1.4-1.7,2.2-2.5c-1.1-0.4-2.2-0.8-3.2-1.2C95.3,137.3,95.7,138.5,96,139.8"/>
	<path id="path337" class="st5" d="M85.1,139.9c-0.7-0.8-1.4-1.7-2.2-2.5c1.1-0.4,2.2-0.8,3.2-1.2C85.9,137.4,85.5,138.6,85.1,139.9
		"/>
	<path id="path339" class="st5" d="M90.6,121.2c-0.7,2.5-1.4,4.9-2.1,7.4c-0.3,0.9-5.5,2.2-6.5,2.6c1,0.4,6.3,1.7,6.5,2.6
		c0.7,2.5,1.4,4.9,2.1,7.4c0.7-2.5,1.4-4.9,2.1-7.4c0.3-0.9,5.5-2.2,6.5-2.6c-1-0.4-6.3-1.7-6.5-2.6C92,126.1,91.3,123.7,90.6,121.2
		"/>
	<path id="path341" class="st2" d="M143.6,124.9c-0.4,1.6-0.7,3.2-1.1,4.9c-0.1,0.6-3.7,1.2-4.4,1.4c0.7,0.2,4.2,0.8,4.4,1.4
		c0.4,1.6,0.7,3.2,1.1,4.9c0.4-1.6,0.7-3.2,1.1-4.9c0.1-0.6,3.7-1.2,4.4-1.4c-0.7-0.2-4.2-0.8-4.4-1.4
		C144.3,128.2,143.9,126.6,143.6,124.9"/>
	<path id="path343" class="st2" d="M143.6,107.5c-0.4,1.6-0.7,3.2-1.1,4.9c-0.1,0.6-3.7,1.2-4.4,1.4c0.7,0.2,4.2,0.8,4.4,1.4
		c0.4,1.6,0.7,3.2,1.1,4.9c0.4-1.6,0.7-3.2,1.1-4.9c0.1-0.6,3.7-1.2,4.4-1.4c-0.7-0.2-4.2-0.8-4.4-1.4
		C144.3,110.8,143.9,109.2,143.6,107.5"/>
	<path id="path345" class="st2" d="M143.6,142.3c-0.4,1.6-0.7,3.2-1.1,4.9c-0.1,0.6-3.7,1.2-4.4,1.4c0.7,0.2,4.2,0.8,4.4,1.4
		c0.4,1.6,0.7,3.2,1.1,4.9c0.4-1.6,0.7-3.2,1.1-4.9c0.1-0.6,3.7-1.2,4.4-1.4c-0.7-0.2-4.2-0.8-4.4-1.4
		C144.3,145.6,144,143.9,143.6,142.3"/>
	<path id="path347" class="st2" d="M128.4,124.9c-0.4,1.6-0.7,3.2-1.1,4.9c-0.1,0.6-3.7,1.2-4.4,1.4c0.7,0.2,4.2,0.8,4.4,1.4
		c0.4,1.6,0.7,3.2,1.1,4.9c0.4-1.6,0.7-3.2,1.1-4.9c0.1-0.6,3.7-1.2,4.4-1.4c-0.7-0.2-4.2-0.8-4.4-1.4
		C129.1,128.2,128.8,126.6,128.4,124.9"/>
	<path id="path349" class="st2" d="M128.4,107.5c-0.4,1.6-0.7,3.2-1.1,4.9c-0.1,0.6-3.7,1.2-4.4,1.4c0.7,0.2,4.2,0.8,4.4,1.4
		c0.4,1.6,0.7,3.2,1.1,4.9c0.4-1.6,0.7-3.2,1.1-4.9c0.1-0.6,3.7-1.2,4.4-1.4c-0.7-0.2-4.2-0.8-4.4-1.4
		C129.1,110.8,128.8,109.2,128.4,107.5"/>
	<path id="path351" class="st2" d="M128.5,142.3c-0.4,1.6-0.7,3.2-1.1,4.9c-0.1,0.6-3.7,1.2-4.4,1.4c0.7,0.2,4.2,0.8,4.4,1.4
		c0.4,1.6,0.7,3.2,1.1,4.9c0.4-1.6,0.7-3.2,1.1-4.9c0.1-0.6,3.7-1.2,4.4-1.4c-0.7-0.2-4.2-0.8-4.4-1.4
		C129.2,145.6,128.8,143.9,128.5,142.3"/>
	<path id="path353" class="st2" d="M98.1,175.9c-0.4,1.6-0.7,3.2-1.1,4.9c-0.1,0.6-3.7,1.2-4.4,1.4c0.7,0.2,4.2,0.8,4.4,1.4
		c0.4,1.6,0.7,3.2,1.1,4.9c0.4-1.6,0.7-3.2,1.1-4.9c0.1-0.6,3.7-1.2,4.4-1.4c-0.7-0.2-4.2-0.8-4.4-1.4
		C98.8,179.1,98.5,177.5,98.1,175.9"/>
	<path id="path355" class="st2" d="M83,175.9c-0.4,1.6-0.7,3.2-1.1,4.9c-0.1,0.6-3.7,1.2-4.4,1.4c0.7,0.2,4.2,0.8,4.4,1.4
		c0.4,1.6,0.7,3.2,1.1,4.9c0.4-1.6,0.7-3.2,1.1-4.9c0.1-0.6,3.7-1.2,4.4-1.4c-0.7-0.2-4.2-0.8-4.4-1.4
		C83.7,179.1,83.3,177.5,83,175.9"/>
	<path id="path357" class="st2" d="M113.3,175.8c-0.4,1.6-0.7,3.2-1.1,4.9c-0.1,0.6-3.7,1.2-4.4,1.4c0.7,0.2,4.2,0.8,4.4,1.4
		c0.4,1.6,0.7,3.2,1.1,4.9c0.4-1.6,0.7-3.2,1.1-4.9c0.1-0.6,3.7-1.2,4.4-1.4c-0.7-0.2-4.2-0.8-4.4-1.4
		C114,179.1,113.6,177.5,113.3,175.8"/>
	<path id="path359" class="st2" d="M67.9,175.9c-0.4,1.6-0.7,3.2-1.1,4.9c-0.1,0.6-3.7,1.2-4.4,1.4c0.7,0.2,4.2,0.8,4.4,1.4
		c0.4,1.6,0.7,3.2,1.1,4.9c0.4-1.6,0.7-3.2,1.1-4.9c0.1-0.6,3.7-1.2,4.4-1.4c-0.7-0.2-4.2-0.8-4.4-1.4
		C68.6,179.1,68.2,177.5,67.9,175.9"/>
	<path id="path361" class="st2" d="M143.6,175.9c-0.4,1.6-0.7,3.2-1.1,4.9c-0.1,0.6-3.7,1.2-4.4,1.4c0.7,0.2,4.2,0.8,4.4,1.4
		c0.4,1.6,0.7,3.2,1.1,4.9c0.4-1.6,0.7-3.2,1.1-4.9c0.1-0.6,3.7-1.2,4.4-1.4c-0.7-0.2-4.2-0.8-4.4-1.4
		C144.3,179.1,143.9,177.5,143.6,175.9"/>
	<path id="path363" class="st2" d="M128.4,175.9c-0.4,1.6-0.7,3.2-1.1,4.9c-0.1,0.6-3.7,1.2-4.4,1.4c0.7,0.2,4.2,0.8,4.4,1.4
		c0.4,1.6,0.7,3.2,1.1,4.9c0.4-1.6,0.7-3.2,1.1-4.9c0.1-0.6,3.7-1.2,4.4-1.4c-0.7-0.2-4.2-0.8-4.4-1.4
		C129.1,179.1,128.8,177.5,128.4,175.9"/>
	<path id="path365" class="st2" d="M98.1,193.3c-0.4,1.6-0.7,3.2-1.1,4.9c-0.1,0.6-3.7,1.2-4.4,1.4c0.7,0.2,4.2,0.8,4.4,1.4
		c0.4,1.6,0.7,3.2,1.1,4.9c0.4-1.6,0.7-3.2,1.1-4.9c0.1-0.6,3.7-1.2,4.4-1.4c-0.7-0.2-4.2-0.8-4.4-1.4
		C98.8,196.5,98.5,194.9,98.1,193.3"/>
	<path id="path367" class="st2" d="M83,193.3c-0.4,1.6-0.7,3.2-1.1,4.9c-0.1,0.6-3.7,1.2-4.4,1.4c0.7,0.2,4.2,0.8,4.4,1.4
		c0.4,1.6,0.7,3.2,1.1,4.9c0.4-1.6,0.7-3.2,1.1-4.9c0.1-0.6,3.7-1.2,4.4-1.4c-0.7-0.2-4.2-0.8-4.4-1.4
		C83.7,196.5,83.3,194.9,83,193.3"/>
	<path id="path369" class="st2" d="M113.3,193.2c-0.4,1.6-0.7,3.2-1.1,4.9c-0.1,0.6-3.7,1.2-4.4,1.4c0.7,0.2,4.2,0.8,4.4,1.4
		c0.4,1.6,0.7,3.2,1.1,4.9c0.4-1.6,0.7-3.2,1.1-4.9c0.1-0.6,3.7-1.2,4.4-1.4c-0.7-0.2-4.2-0.8-4.4-1.4
		C114,196.5,113.6,194.9,113.3,193.2"/>
	<path id="path371" class="st2" d="M67.9,193.3c-0.4,1.6-0.7,3.2-1.1,4.9c-0.1,0.6-3.7,1.2-4.4,1.4c0.7,0.2,4.2,0.8,4.4,1.4
		c0.4,1.6,0.7,3.2,1.1,4.9c0.4-1.6,0.7-3.2,1.1-4.9c0.1-0.6,3.7-1.2,4.4-1.4c-0.7-0.2-4.2-0.8-4.4-1.4
		C68.6,196.5,68.2,194.9,67.9,193.3"/>
	<path id="path373" class="st2" d="M143.6,193.3c-0.4,1.6-0.7,3.2-1.1,4.9c-0.1,0.6-3.7,1.2-4.4,1.4c0.7,0.2,4.2,0.8,4.4,1.4
		c0.4,1.6,0.7,3.2,1.1,4.9c0.4-1.6,0.7-3.2,1.1-4.9c0.1-0.6,3.7-1.2,4.4-1.4c-0.7-0.2-4.2-0.8-4.4-1.4
		C144.3,196.5,143.9,194.9,143.6,193.3"/>
	<path id="path375" class="st2" d="M128.4,193.3c-0.4,1.6-0.7,3.2-1.1,4.9c-0.1,0.6-3.7,1.2-4.4,1.4c0.7,0.2,4.2,0.8,4.4,1.4
		c0.4,1.6,0.7,3.2,1.1,4.9c0.4-1.6,0.7-3.2,1.1-4.9c0.1-0.6,3.7-1.2,4.4-1.4c-0.7-0.2-4.2-0.8-4.4-1.4
		C129.1,196.5,128.8,194.9,128.4,193.3"/>
	<path id="path377" class="st2" d="M98.1,210.7c-0.4,1.6-0.7,3.2-1.1,4.9c-0.1,0.6-3.7,1.2-4.4,1.4c0.7,0.2,4.2,0.8,4.4,1.4
		c0.4,1.6,0.7,3.2,1.1,4.9c0.4-1.6,0.7-3.2,1.1-4.9c0.1-0.6,3.7-1.2,4.4-1.4c-0.7-0.2-4.2-0.8-4.4-1.4
		C98.8,213.9,98.5,212.3,98.1,210.7"/>
	<path id="path379" class="st2" d="M83,210.7c-0.4,1.6-0.7,3.2-1.1,4.9c-0.1,0.6-3.7,1.2-4.4,1.4c0.7,0.2,4.2,0.8,4.4,1.4
		c0.4,1.6,0.7,3.2,1.1,4.9c0.4-1.6,0.7-3.2,1.1-4.9c0.1-0.6,3.7-1.2,4.4-1.4c-0.7-0.2-4.2-0.8-4.4-1.4
		C83.7,213.9,83.3,212.3,83,210.7"/>
	<path id="path381" class="st2" d="M113.3,210.6c-0.4,1.6-0.7,3.2-1.1,4.9c-0.1,0.6-3.7,1.2-4.4,1.4c0.7,0.2,4.2,0.8,4.4,1.4
		c0.4,1.6,0.7,3.2,1.1,4.9c0.4-1.6,0.7-3.2,1.1-4.9c0.1-0.6,3.7-1.2,4.4-1.4c-0.7-0.2-4.2-0.8-4.4-1.4
		C114,213.9,113.6,212.2,113.3,210.6"/>
	<path id="path383" class="st2" d="M67.9,210.7c-0.4,1.6-0.7,3.2-1.1,4.9c-0.1,0.6-3.7,1.2-4.4,1.4c0.7,0.2,4.2,0.8,4.4,1.4
		c0.4,1.6,0.7,3.2,1.1,4.9c0.4-1.6,0.7-3.2,1.1-4.9c0.1-0.6,3.7-1.2,4.4-1.4c-0.7-0.2-4.2-0.8-4.4-1.4
		C68.6,213.9,68.2,212.3,67.9,210.7"/>
	<path id="path385" class="st2" d="M143.6,210.7c-0.4,1.6-0.7,3.2-1.1,4.9c-0.1,0.6-3.7,1.2-4.4,1.4c0.7,0.2,4.2,0.8,4.4,1.4
		c0.4,1.6,0.7,3.2,1.1,4.9c0.4-1.6,0.7-3.2,1.1-4.9c0.1-0.6,3.7-1.2,4.4-1.4c-0.7-0.2-4.2-0.8-4.4-1.4
		C144.3,213.9,143.9,212.3,143.6,210.7"/>
	<path id="path387" class="st2" d="M128.4,210.7c-0.4,1.6-0.7,3.2-1.1,4.9c-0.1,0.6-3.7,1.2-4.4,1.4c0.7,0.2,4.2,0.8,4.4,1.4
		c0.4,1.6,0.7,3.2,1.1,4.9c0.4-1.6,0.7-3.2,1.1-4.9c0.1-0.6,3.7-1.2,4.4-1.4c-0.7-0.2-4.2-0.8-4.4-1.4
		C129.1,213.9,128.8,212.3,128.4,210.7"/>
	<path id="path389" class="st2" d="M98.1,159.7c-0.4,1.6-0.7,3.2-1.1,4.9c-0.1,0.6-3.7,1.2-4.4,1.4c0.7,0.2,4.2,0.8,4.4,1.4
		c0.4,1.6,0.7,3.2,1.1,4.9c0.4-1.6,0.7-3.2,1.1-4.9c0.1-0.6,3.7-1.2,4.4-1.4c-0.7-0.2-4.2-0.8-4.4-1.4
		C98.8,163,98.5,161.3,98.1,159.7"/>
	<path id="path391" class="st2" d="M83,159.7c-0.4,1.6-0.7,3.2-1.1,4.9c-0.1,0.6-3.7,1.2-4.4,1.4c0.7,0.2,4.2,0.8,4.4,1.4
		c0.4,1.6,0.7,3.2,1.1,4.9c0.4-1.6,0.7-3.2,1.1-4.9c0.1-0.6,3.7-1.2,4.4-1.4c-0.7-0.2-4.2-0.8-4.4-1.4C83.7,163,83.3,161.3,83,159.7
		"/>
	<path id="path393" class="st2" d="M113.3,159.7c-0.4,1.6-0.7,3.2-1.1,4.9c-0.1,0.6-3.7,1.2-4.4,1.4c0.7,0.2,4.2,0.8,4.4,1.4
		c0.4,1.6,0.7,3.2,1.1,4.9c0.4-1.6,0.7-3.2,1.1-4.9c0.1-0.6,3.7-1.2,4.4-1.4c-0.7-0.2-4.2-0.8-4.4-1.4
		C114,162.9,113.6,161.3,113.3,159.7"/>
	<path id="path395" class="st2" d="M67.9,159.7c-0.4,1.6-0.7,3.2-1.1,4.9c-0.1,0.6-3.7,1.2-4.4,1.4c0.7,0.2,4.2,0.8,4.4,1.4
		c0.4,1.6,0.7,3.2,1.1,4.9c0.4-1.6,0.7-3.2,1.1-4.9c0.1-0.6,3.7-1.2,4.4-1.4c-0.7-0.2-4.2-0.8-4.4-1.4
		C68.6,163,68.2,161.4,67.9,159.7"/>
	<path id="path397" class="st2" d="M143.6,159.7c-0.4,1.6-0.7,3.2-1.1,4.9c-0.1,0.6-3.7,1.2-4.4,1.4c0.7,0.2,4.2,0.8,4.4,1.4
		c0.4,1.6,0.7,3.2,1.1,4.9c0.4-1.6,0.7-3.2,1.1-4.9c0.1-0.6,3.7-1.2,4.4-1.4c-0.7-0.2-4.2-0.8-4.4-1.4
		C144.3,163,143.9,161.3,143.6,159.7"/>
	<path id="path399" class="st2" d="M128.4,159.7c-0.4,1.6-0.7,3.2-1.1,4.9c-0.1,0.6-3.7,1.2-4.4,1.4c0.7,0.2,4.2,0.8,4.4,1.4
		c0.4,1.6,0.7,3.2,1.1,4.9c0.4-1.6,0.7-3.2,1.1-4.9c0.1-0.6,3.7-1.2,4.4-1.4c-0.7-0.2-4.2-0.8-4.4-1.4
		C129.1,163,128.8,161.3,128.4,159.7"/>
	<path id="path401" class="st2" d="M83,90.2c-0.4,1.6-0.7,3.2-1.1,4.9c-0.1,0.6-3.7,1.2-4.4,1.4c0.7,0.2,4.2,0.8,4.4,1.4
		c0.4,1.6,0.7,3.2,1.1,4.9c0.4-1.6,0.7-3.2,1.1-4.9c0.1-0.6,3.7-1.2,4.4-1.4c-0.7-0.2-4.2-0.8-4.4-1.4C83.7,93.4,83.3,91.8,83,90.2"
		/>
	<path id="path403" class="st2" d="M67.8,90.2c-0.4,1.6-0.7,3.2-1.1,4.9c-0.1,0.6-3.7,1.2-4.4,1.4c0.7,0.2,4.2,0.8,4.4,1.4
		c0.4,1.6,0.7,3.2,1.1,4.9c0.4-1.6,0.7-3.2,1.1-4.9c0.1-0.6,3.7-1.2,4.4-1.4c-0.7-0.2-4.2-0.8-4.4-1.4
		C68.5,93.4,68.2,91.8,67.8,90.2"/>
	<path id="path405" class="st2" d="M113.3,90.2c-0.4,1.6-0.7,3.2-1.1,4.9c-0.1,0.6-3.7,1.2-4.4,1.4c0.7,0.2,4.2,0.8,4.4,1.4
		c0.4,1.6,0.7,3.2,1.1,4.9c0.4-1.6,0.7-3.2,1.1-4.9c0.1-0.6,3.7-1.2,4.4-1.4c-0.7-0.2-4.2-0.8-4.4-1.4
		C114,93.4,113.6,91.8,113.3,90.2"/>
	<path id="path407" class="st2" d="M98.1,90.2c-0.4,1.6-0.7,3.2-1.1,4.9c-0.1,0.6-3.7,1.2-4.4,1.4c0.7,0.2,4.2,0.8,4.4,1.4
		c0.4,1.6,0.7,3.2,1.1,4.9c0.4-1.6,0.7-3.2,1.1-4.9c0.1-0.6,3.7-1.2,4.4-1.4c-0.7-0.2-4.2-0.8-4.4-1.4
		C98.8,93.4,98.5,91.8,98.1,90.2"/>
	<path id="path409" class="st2" d="M67.8,72.8c-0.4,1.6-0.7,3.2-1.1,4.9c-0.1,0.6-3.7,1.2-4.4,1.4c0.7,0.2,4.2,0.8,4.4,1.4
		c0.4,1.6,0.7,3.2,1.1,4.9c0.4-1.6,0.7-3.2,1.1-4.9c0.1-0.6,3.7-1.2,4.4-1.4c-0.7-0.2-4.2-0.8-4.4-1.4C68.5,76,68.2,74.4,67.8,72.8"
		/>
	<path id="path411" class="st2" d="M83,72.8c-0.4,1.6-0.7,3.2-1.1,4.9c-0.1,0.6-3.7,1.2-4.4,1.4c0.7,0.2,4.2,0.8,4.4,1.4
		c0.4,1.6,0.7,3.2,1.1,4.9c0.4-1.6,0.7-3.2,1.1-4.9c0.1-0.6,3.7-1.2,4.4-1.4c-0.7-0.2-4.2-0.8-4.4-1.4C83.7,76,83.3,74.4,83,72.8"/>
	<path id="path413" class="st2" d="M98.1,72.8c-0.4,1.6-0.7,3.2-1.1,4.9c-0.1,0.6-3.7,1.2-4.4,1.4c0.7,0.2,4.2,0.8,4.4,1.4
		c0.4,1.6,0.7,3.2,1.1,4.9c0.4-1.6,0.7-3.2,1.1-4.9c0.1-0.6,3.7-1.2,4.4-1.4c-0.7-0.2-4.2-0.8-4.4-1.4C98.8,76,98.5,74.4,98.1,72.8"
		/>
	<path id="path415" class="st2" d="M113.3,72.8c-0.4,1.6-0.7,3.2-1.1,4.9c-0.1,0.6-3.7,1.2-4.4,1.4c0.7,0.2,4.2,0.8,4.4,1.4
		c0.4,1.6,0.7,3.2,1.1,4.9c0.4-1.6,0.7-3.2,1.1-4.9c0.1-0.6,3.7-1.2,4.4-1.4c-0.7-0.2-4.2-0.8-4.4-1.4C114,76,113.6,74.4,113.3,72.8
		"/>
	<path id="path417" class="st2" d="M143.6,90.1c-0.4,1.6-0.7,3.2-1.1,4.9c-0.1,0.6-3.7,1.2-4.4,1.4c0.7,0.2,4.2,0.8,4.4,1.4
		c0.4,1.6,0.7,3.2,1.1,4.9c0.4-1.6,0.7-3.2,1.1-4.9c0.1-0.6,3.7-1.2,4.4-1.4c-0.7-0.2-4.2-0.8-4.4-1.4
		C144.3,93.4,143.9,91.8,143.6,90.1"/>
	<path id="path419" class="st2" d="M143.6,72.8c-0.4,1.6-0.7,3.2-1.1,4.9c-0.1,0.6-3.7,1.2-4.4,1.4c0.7,0.2,4.2,0.8,4.4,1.4
		c0.4,1.6,0.7,3.2,1.1,4.9c0.4-1.6,0.7-3.2,1.1-4.9c0.1-0.6,3.7-1.2,4.4-1.4c-0.7-0.2-4.2-0.8-4.4-1.4
		C144.3,76,143.9,74.4,143.6,72.8"/>
	<path id="path421" class="st2" d="M128.4,90.1c-0.4,1.6-0.7,3.2-1.1,4.9c-0.1,0.6-3.7,1.2-4.4,1.4c0.7,0.2,4.2,0.8,4.4,1.4
		c0.4,1.6,0.7,3.2,1.1,4.9c0.4-1.6,0.7-3.2,1.1-4.9c0.1-0.6,3.7-1.2,4.4-1.4c-0.7-0.2-4.2-0.8-4.4-1.4
		C129.1,93.4,128.8,91.8,128.4,90.1"/>
	<path id="path423" class="st2" d="M128.4,72.8c-0.4,1.6-0.7,3.2-1.1,4.9c-0.1,0.6-3.7,1.2-4.4,1.4c0.7,0.2,4.2,0.8,4.4,1.4
		c0.4,1.6,0.7,3.2,1.1,4.9c0.4-1.6,0.7-3.2,1.1-4.9c0.1-0.6,3.7-1.2,4.4-1.4c-0.7-0.2-4.2-0.8-4.4-1.4
		C129.1,76,128.8,74.4,128.4,72.8"/>
	<path id="path425" class="st2" d="M83,55.4c-0.4,1.6-0.7,3.2-1.1,4.9c-0.1,0.6-3.7,1.2-4.4,1.4c0.7,0.2,4.2,0.8,4.4,1.4
		c0.4,1.6,0.7,3.2,1.1,4.9c0.4-1.6,0.7-3.2,1.1-4.9c0.1-0.6,3.7-1.2,4.4-1.4c-0.7-0.2-4.2-0.8-4.4-1.4C83.7,58.6,83.3,57,83,55.4"/>
	<path id="path427" class="st2" d="M67.8,55.4c-0.4,1.6-0.7,3.2-1.1,4.9c-0.1,0.6-3.7,1.2-4.4,1.4c0.7,0.2,4.2,0.8,4.4,1.4
		c0.4,1.6,0.7,3.2,1.1,4.9c0.4-1.6,0.7-3.2,1.1-4.9c0.1-0.6,3.7-1.2,4.4-1.4c-0.7-0.2-4.2-0.8-4.4-1.4C68.5,58.6,68.2,57,67.8,55.4"
		/>
	<path id="path429" class="st2" d="M113.3,55.4c-0.4,1.6-0.7,3.2-1.1,4.9c-0.1,0.6-3.7,1.2-4.4,1.4c0.7,0.2,4.2,0.8,4.4,1.4
		c0.4,1.6,0.7,3.2,1.1,4.9c0.4-1.6,0.7-3.2,1.1-4.9c0.1-0.6,3.7-1.2,4.4-1.4c-0.7-0.2-4.2-0.8-4.4-1.4C114,58.6,113.6,57,113.3,55.4
		"/>
	<path id="path431" class="st2" d="M98.1,55.4c-0.4,1.6-0.7,3.2-1.1,4.9c-0.1,0.6-3.7,1.2-4.4,1.4c0.7,0.2,4.2,0.8,4.4,1.4
		c0.4,1.6,0.7,3.2,1.1,4.9c0.4-1.6,0.7-3.2,1.1-4.9c0.1-0.6,3.7-1.2,4.4-1.4c-0.7-0.2-4.2-0.8-4.4-1.4C98.8,58.6,98.5,57,98.1,55.4"
		/>
	<path id="path433" class="st2" d="M67.8,38c-0.4,1.6-0.7,3.2-1.1,4.9c-0.1,0.6-3.7,1.2-4.4,1.4c0.7,0.2,4.2,0.8,4.4,1.4
		c0.4,1.6,0.7,3.2,1.1,4.9c0.4-1.6,0.7-3.2,1.1-4.9c0.1-0.6,3.7-1.2,4.4-1.4c-0.7-0.2-4.2-0.8-4.4-1.4C68.5,41.2,68.2,39.6,67.8,38"
		/>
	<path id="path435" class="st2" d="M83,38c-0.4,1.6-0.7,3.2-1.1,4.9c-0.1,0.6-3.7,1.2-4.4,1.4c0.7,0.2,4.2,0.8,4.4,1.4
		c0.4,1.6,0.7,3.2,1.1,4.9c0.4-1.6,0.7-3.2,1.1-4.9c0.1-0.6,3.7-1.2,4.4-1.4c-0.7-0.2-4.2-0.8-4.4-1.4C83.7,41.2,83.3,39.6,83,38"/>
	<path id="path437" class="st2" d="M98.1,38c-0.4,1.6-0.7,3.2-1.1,4.9c-0.1,0.6-3.7,1.2-4.4,1.4c0.7,0.2,4.2,0.8,4.4,1.4
		c0.4,1.6,0.7,3.2,1.1,4.9c0.4-1.6,0.7-3.2,1.1-4.9c0.1-0.6,3.7-1.2,4.4-1.4c-0.7-0.2-4.2-0.8-4.4-1.4C98.8,41.2,98.5,39.6,98.1,38"
		/>
	<path id="path439" class="st2" d="M113.3,38c-0.4,1.6-0.7,3.2-1.1,4.9c-0.1,0.6-3.7,1.2-4.4,1.4c0.7,0.2,4.2,0.8,4.4,1.4
		c0.4,1.6,0.7,3.2,1.1,4.9c0.4-1.6,0.7-3.2,1.1-4.9c0.1-0.6,3.7-1.2,4.4-1.4c-0.7-0.2-4.2-0.8-4.4-1.4C114,41.2,113.6,39.6,113.3,38
		"/>
	<path id="path441" class="st2" d="M143.6,55.4c-0.4,1.6-0.7,3.2-1.1,4.9c-0.1,0.6-3.7,1.2-4.4,1.4c0.7,0.2,4.2,0.8,4.4,1.4
		c0.4,1.6,0.7,3.2,1.1,4.9c0.4-1.6,0.7-3.2,1.1-4.9c0.1-0.6,3.7-1.2,4.4-1.4c-0.7-0.2-4.2-0.8-4.4-1.4
		C144.3,58.6,143.9,57,143.6,55.4"/>
	<path id="path443" class="st2" d="M143.6,38c-0.4,1.6-0.7,3.2-1.1,4.9c-0.1,0.6-3.7,1.2-4.4,1.4c0.7,0.2,4.2,0.8,4.4,1.4
		c0.4,1.6,0.7,3.2,1.1,4.9c0.4-1.6,0.7-3.2,1.1-4.9c0.1-0.6,3.7-1.2,4.4-1.4c-0.7-0.2-4.2-0.8-4.4-1.4
		C144.3,41.2,143.9,39.6,143.6,38"/>
	<path id="path445" class="st2" d="M128.4,55.4c-0.4,1.6-0.7,3.2-1.1,4.9c-0.1,0.6-3.7,1.2-4.4,1.4c0.7,0.2,4.2,0.8,4.4,1.4
		c0.4,1.6,0.7,3.2,1.1,4.9c0.4-1.6,0.7-3.2,1.1-4.9c0.1-0.6,3.7-1.2,4.4-1.4c-0.7-0.2-4.2-0.8-4.4-1.4
		C129.1,58.6,128.8,57,128.4,55.4"/>
	<path id="path447" class="st2" d="M128.4,38c-0.4,1.6-0.7,3.2-1.1,4.9c-0.1,0.6-3.7,1.2-4.4,1.4c0.7,0.2,4.2,0.8,4.4,1.4
		c0.4,1.6,0.7,3.2,1.1,4.9c0.4-1.6,0.7-3.2,1.1-4.9c0.1-0.6,3.7-1.2,4.4-1.4c-0.7-0.2-4.2-0.8-4.4-1.4
		C129.1,41.2,128.8,39.6,128.4,38"/>
	<path id="path449" class="st2" d="M37.5,142.4c-0.4,1.6-0.7,3.2-1.1,4.9c-0.1,0.6-3.7,1.2-4.4,1.4c0.7,0.2,4.2,0.8,4.4,1.4
		c0.4,1.6,0.7,3.2,1.1,4.9c0.4-1.6,0.7-3.2,1.1-4.9c0.1-0.6,3.7-1.2,4.4-1.4c-0.7-0.2-4.2-0.8-4.4-1.4
		C38.2,145.6,37.9,144,37.5,142.4"/>
	<path id="path451" class="st2" d="M37.5,125c-0.4,1.6-0.7,3.2-1.1,4.9c-0.1,0.6-3.7,1.2-4.4,1.4c0.7,0.2,4.2,0.8,4.4,1.4
		c0.4,1.6,0.7,3.2,1.1,4.9c0.4-1.6,0.7-3.2,1.1-4.9c0.1-0.6,3.7-1.2,4.4-1.4c-0.7-0.2-4.2-0.8-4.4-1.4
		C38.2,128.2,37.9,126.6,37.5,125"/>
	<path id="path453" class="st2" d="M37.5,107.5c-0.4,1.6-0.7,3.2-1.1,4.9c-0.1,0.6-3.7,1.2-4.4,1.4c0.7,0.2,4.2,0.8,4.4,1.4
		c0.4,1.6,0.7,3.2,1.1,4.9c0.4-1.6,0.7-3.2,1.1-4.9c0.1-0.6,3.7-1.2,4.4-1.4c-0.7-0.2-4.2-0.8-4.4-1.4
		C38.3,110.8,37.9,109.2,37.5,107.5"/>
	<path id="path455" class="st2" d="M37.5,175.9c-0.4,1.6-0.7,3.2-1.1,4.9c-0.1,0.6-3.7,1.2-4.4,1.4c0.7,0.2,4.2,0.8,4.4,1.4
		c0.4,1.6,0.7,3.2,1.1,4.9c0.4-1.6,0.7-3.2,1.1-4.9c0.1-0.6,3.7-1.2,4.4-1.4c-0.7-0.2-4.2-0.8-4.4-1.4
		C38.2,179.1,37.9,177.5,37.5,175.9"/>
	<path id="path457" class="st2" d="M37.5,193.3c-0.4,1.6-0.7,3.2-1.1,4.9c-0.1,0.6-3.7,1.2-4.4,1.4c0.7,0.2,4.2,0.8,4.4,1.4
		c0.4,1.6,0.7,3.2,1.1,4.9c0.4-1.6,0.7-3.2,1.1-4.9c0.1-0.6,3.7-1.2,4.4-1.4c-0.7-0.2-4.2-0.8-4.4-1.4
		C38.2,196.5,37.9,194.9,37.5,193.3"/>
	<path id="path459" class="st2" d="M37.5,210.7c-0.4,1.6-0.7,3.2-1.1,4.9c-0.1,0.6-3.7,1.2-4.4,1.4c0.7,0.2,4.2,0.8,4.4,1.4
		c0.4,1.6,0.7,3.2,1.1,4.9c0.4-1.6,0.7-3.2,1.1-4.9c0.1-0.6,3.7-1.2,4.4-1.4c-0.7-0.2-4.2-0.8-4.4-1.4
		C38.2,213.9,37.9,212.3,37.5,210.7"/>
	<path id="path461" class="st2" d="M37.5,159.7c-0.4,1.6-0.7,3.2-1.1,4.9c-0.1,0.6-3.7,1.2-4.4,1.4c0.7,0.2,4.2,0.8,4.4,1.4
		c0.4,1.6,0.7,3.2,1.1,4.9c0.4-1.6,0.7-3.2,1.1-4.9c0.1-0.6,3.7-1.2,4.4-1.4c-0.7-0.2-4.2-0.8-4.4-1.4
		C38.2,163,37.9,161.3,37.5,159.7"/>
	<path id="path463" class="st2" d="M37.5,90.2c-0.4,1.6-0.7,3.2-1.1,4.9c-0.1,0.6-3.7,1.2-4.4,1.4c0.7,0.2,4.2,0.8,4.4,1.4
		c0.4,1.6,0.7,3.2,1.1,4.9c0.4-1.6,0.7-3.2,1.1-4.9c0.1-0.6,3.7-1.2,4.4-1.4c-0.7-0.2-4.2-0.8-4.4-1.4
		C38.2,93.4,37.9,91.8,37.5,90.2"/>
	<path id="path465" class="st2" d="M37.5,72.8c-0.4,1.6-0.7,3.2-1.1,4.9c-0.1,0.6-3.7,1.2-4.4,1.4c0.7,0.2,4.2,0.8,4.4,1.4
		c0.4,1.6,0.7,3.2,1.1,4.9c0.4-1.6,0.7-3.2,1.1-4.9c0.1-0.6,3.7-1.2,4.4-1.4c-0.7-0.2-4.2-0.8-4.4-1.4C38.2,76,37.9,74.4,37.5,72.8"
		/>
	<path id="path467" class="st2" d="M37.5,55.4c-0.4,1.6-0.7,3.2-1.1,4.9c-0.1,0.6-3.7,1.2-4.4,1.4c0.7,0.2,4.2,0.8,4.4,1.4
		c0.4,1.6,0.7,3.2,1.1,4.9c0.4-1.6,0.7-3.2,1.1-4.9c0.1-0.6,3.7-1.2,4.4-1.4c-0.7-0.2-4.2-0.8-4.4-1.4C38.2,58.6,37.9,57,37.5,55.4"
		/>
	<path id="path469" class="st2" d="M37.5,38c-0.4,1.6-0.7,3.2-1.1,4.9c-0.1,0.6-3.7,1.2-4.4,1.4c0.7,0.2,4.2,0.8,4.4,1.4
		c0.4,1.6,0.7,3.2,1.1,4.9c0.4-1.6,0.7-3.2,1.1-4.9c0.1-0.6,3.7-1.2,4.4-1.4c-0.7-0.2-4.2-0.8-4.4-1.4C38.2,41.2,37.9,39.6,37.5,38"
		/>
	<path id="path471" class="st2" d="M52.7,142.4c-0.4,1.6-0.7,3.2-1.1,4.9c-0.1,0.6-3.7,1.2-4.4,1.4c0.7,0.2,4.2,0.8,4.4,1.4
		c0.4,1.6,0.7,3.2,1.1,4.9c0.4-1.6,0.7-3.2,1.1-4.9c0.1-0.6,3.7-1.2,4.4-1.4c-0.7-0.2-4.2-0.8-4.4-1.4C53.4,145.6,53,144,52.7,142.4
		"/>
	<path id="path473" class="st2" d="M52.7,125c-0.4,1.6-0.7,3.2-1.1,4.9c-0.1,0.6-3.7,1.2-4.4,1.4c0.7,0.2,4.2,0.8,4.4,1.4
		c0.4,1.6,0.7,3.2,1.1,4.9c0.4-1.6,0.7-3.2,1.1-4.9c0.1-0.6,3.7-1.2,4.4-1.4c-0.7-0.2-4.2-0.8-4.4-1.4C53.4,128.2,53,126.6,52.7,125
		"/>
	<path id="path475" class="st2" d="M52.7,107.5c-0.4,1.6-0.7,3.2-1.1,4.9c-0.1,0.6-3.7,1.2-4.4,1.4c0.7,0.2,4.2,0.8,4.4,1.4
		c0.4,1.6,0.7,3.2,1.1,4.9c0.4-1.6,0.7-3.2,1.1-4.9c0.1-0.6,3.7-1.2,4.4-1.4c-0.7-0.2-4.2-0.8-4.4-1.4
		C53.4,110.8,53.1,109.2,52.7,107.5"/>
	<path id="path477" class="st2" d="M52.7,175.9c-0.4,1.6-0.7,3.2-1.1,4.9c-0.1,0.6-3.7,1.2-4.4,1.4c0.7,0.2,4.2,0.8,4.4,1.4
		c0.4,1.6,0.7,3.2,1.1,4.9c0.4-1.6,0.7-3.2,1.1-4.9c0.1-0.6,3.7-1.2,4.4-1.4c-0.7-0.2-4.2-0.8-4.4-1.4
		C53.4,179.1,53,177.5,52.7,175.9"/>
	<path id="path479" class="st2" d="M52.7,193.3c-0.4,1.6-0.7,3.2-1.1,4.9c-0.1,0.6-3.7,1.2-4.4,1.4c0.7,0.2,4.2,0.8,4.4,1.4
		c0.4,1.6,0.7,3.2,1.1,4.9c0.4-1.6,0.7-3.2,1.1-4.9c0.1-0.6,3.7-1.2,4.4-1.4c-0.7-0.2-4.2-0.8-4.4-1.4
		C53.4,196.5,53,194.9,52.7,193.3"/>
	<path id="path481" class="st2" d="M52.7,210.7c-0.4,1.6-0.7,3.2-1.1,4.9c-0.1,0.6-3.7,1.2-4.4,1.4c0.7,0.2,4.2,0.8,4.4,1.4
		c0.4,1.6,0.7,3.2,1.1,4.9c0.4-1.6,0.7-3.2,1.1-4.9c0.1-0.6,3.7-1.2,4.4-1.4c-0.7-0.2-4.2-0.8-4.4-1.4
		C53.4,213.9,53,212.3,52.7,210.7"/>
	<path id="path483" class="st2" d="M52.7,159.7c-0.4,1.6-0.7,3.2-1.1,4.9c-0.1,0.6-3.7,1.2-4.4,1.4c0.7,0.2,4.2,0.8,4.4,1.4
		c0.4,1.6,0.7,3.2,1.1,4.9c0.4-1.6,0.7-3.2,1.1-4.9c0.1-0.6,3.7-1.2,4.4-1.4c-0.7-0.2-4.2-0.8-4.4-1.4C53.4,163,53,161.3,52.7,159.7
		"/>
	<path id="path485" class="st2" d="M52.7,90.2c-0.4,1.6-0.7,3.2-1.1,4.9c-0.1,0.6-3.7,1.2-4.4,1.4c0.7,0.2,4.2,0.8,4.4,1.4
		c0.4,1.6,0.7,3.2,1.1,4.9c0.4-1.6,0.7-3.2,1.1-4.9c0.1-0.6,3.7-1.2,4.4-1.4c-0.7-0.2-4.2-0.8-4.4-1.4C53.4,93.4,53,91.8,52.7,90.2"
		/>
	<path id="path487" class="st2" d="M52.7,72.8c-0.4,1.6-0.7,3.2-1.1,4.9c-0.1,0.6-3.7,1.2-4.4,1.4c0.7,0.2,4.2,0.8,4.4,1.4
		c0.4,1.6,0.7,3.2,1.1,4.9c0.4-1.6,0.7-3.2,1.1-4.9c0.1-0.6,3.7-1.2,4.4-1.4c-0.7-0.2-4.2-0.8-4.4-1.4C53.4,76,53,74.4,52.7,72.8"/>
	<path id="path489" class="st2" d="M52.7,55.4c-0.4,1.6-0.7,3.2-1.1,4.9c-0.1,0.6-3.7,1.2-4.4,1.4c0.7,0.2,4.2,0.8,4.4,1.4
		c0.4,1.6,0.7,3.2,1.1,4.9c0.4-1.6,0.7-3.2,1.1-4.9c0.1-0.6,3.7-1.2,4.4-1.4c-0.7-0.2-4.2-0.8-4.4-1.4C53.4,58.6,53,57,52.7,55.4"/>
	<path id="path491" class="st2" d="M52.7,38c-0.4,1.6-0.7,3.2-1.1,4.9c-0.1,0.6-3.7,1.2-4.4,1.4c0.7,0.2,4.2,0.8,4.4,1.4
		c0.4,1.6,0.7,3.2,1.1,4.9c0.4-1.6,0.7-3.2,1.1-4.9c0.1-0.6,3.7-1.2,4.4-1.4c-0.7-0.2-4.2-0.8-4.4-1.4C53.4,41.2,53,39.6,52.7,38"/>
	<path id="path493" class="st6" d="M9.1,7.6c-2.5,0-1.6,6.9-1.6,8.3c0,6.3,0,12.6,0,18.9c0,20.9,0,41.7,0,62.6
		c0,44.7,0,89.5,0,134.2c0,5.6,0,11.1,0,16.7c0,1.9-0.7,5.9,2.1,5.9c14.4,0,28.9,0,43.3,0c39.4,0,78.8,0,118.1,0
		c3,0,2.4-3.2,2.4-5.3c0-5.3,0-10.7,0-16c0-19.7,0-39.5,0-59.2c0-45.8,0-91.6,0-137.4c0-6.5,0-13.1,0-19.6c0-2.2,0.5-5.1,0-7.2
		c0-3.2-9.1-1.9-11-1.9c-8.6,0-17.2,0-25.9,0c-41.5,0-83,0-124.5,0C11.1,7.6,10.1,7.6,9.1,7.6"/>
</g>
<sodipodi:namedview  bordercolor="#666666" borderopacity="1.0" gridtolerance="10.0" guidetolerance="10.0" height="303px" id="base" inkscape:current-layer="svg2" inkscape:cx="104.42474" inkscape:cy="151.66565" inkscape:pageopacity="0.0" inkscape:pageshadow="2" inkscape:window-height="1003" inkscape:window-width="1280" inkscape:window-x="-4" inkscape:window-y="-4" inkscape:zoom="1.2428655" objecttolerance="10.0" pagecolor="#ffffff" width="208px">
	</sodipodi:namedview>
</svg>
